<svg width="1920" height="93" viewBox="0 0 1920 93" fill="none" xmlns="http://www.w3.org/2000/svg">
<g clip-path="url(#clip0_3421_23563)">
<path d="M1922.76 -12.9062L1898.57 9.85938H416.381V-12.9062H1922.76Z" fill="#111822"/>
<path d="M807.941 89.531L878.867 21.5605H1713.88" stroke="#475671"/>
<path d="M1484.05 -12.9062L1459.86 9.85938H176.879V-12.9062H1484.05Z" fill="#1A2433"/>
<path d="M1088.68 -12.9062L1064.49 9.85938H-44.4961V-12.9062H1088.68Z" fill="#233043"/>
<path d="M996.994 -12.9062L972.801 9.85938H352.781V-12.9062H996.994Z" fill="#2B3C54"/>
<path d="M599.717 -12.9062L575.523 9.85938H-44.4961V-12.9062H599.717Z" fill="#344865"/>
<path d="M830 23L756.723 90H-890V23H830Z" fill="#344865"/>
<path d="M785 23L711.738 90H-890V23H785Z" fill="#2B3C54"/>
<path d="M748 23L674.712 90H-890V23H748Z" fill="#243145"/>
<path d="M713 23L639.7 89.997L-890 90V23.003L713 23Z" fill="url(#paint0_linear_3421_23563)"/>
<mask id="mask0_3421_23563" style="mask-type:alpha" maskUnits="userSpaceOnUse" x="29" y="-1" width="78" height="95">
<path d="M67.795 -1L29 16.1582V41.8955C29 65.7024 45.5525 87.9652 67.795 93.37C90.0375 87.9652 106.59 65.7024 106.59 41.8955V16.1582L67.795 -1Z" fill="black"/>
</mask>
<g mask="url(#mask0_3421_23563)">
<path d="M106.59 16.1582V41.8955C106.59 65.7025 90.0374 87.9653 67.7949 93.3701C49.2378 88.8607 34.6438 72.6161 30.3164 53.5312H38.6064C39.0514 53.9587 39.6639 54.5358 40.4189 55.2139C42.0592 56.6868 44.3846 58.655 47.123 60.6299C52.4581 64.4774 59.9109 68.7612 67.0889 68.7822C71.3205 68.7945 75.4465 67.3338 79.1445 65.3213C82.8576 63.3005 86.2996 60.6359 89.2109 58.0293C92.1302 55.4156 94.5727 52.8089 96.2832 50.8594C97.1399 49.8829 97.8176 49.066 98.2842 48.4893C98.5175 48.2009 98.6988 47.9716 98.8232 47.8125C98.8853 47.7331 98.9333 47.6705 98.9668 47.627C98.9833 47.6055 98.9965 47.5884 99.0059 47.5762C99.0105 47.5701 99.0148 47.5643 99.0176 47.5605C99.0188 47.559 99.0206 47.5578 99.0215 47.5566L99.0225 47.5547L96.8594 45.9141C98.9145 44.2895 98.9862 44.2312 98.9883 44.2285L98.9873 44.2275L98.9326 44.1592C98.8988 44.117 98.8498 44.0564 98.7871 43.9795C98.6617 43.8255 98.4792 43.6042 98.2441 43.3252C97.7739 42.7671 97.0908 41.9767 96.2285 41.0312C94.5071 39.1439 92.0528 36.6193 89.126 34.085C83.4288 29.1518 75.331 23.6335 67.1113 23.5898C60.0944 23.5527 52.6568 27.5187 47.291 31.1045C44.5392 32.9435 42.192 34.78 40.5332 36.1553C39.7532 36.802 39.1221 37.3501 38.6689 37.752H29V16.1582L67.7949 -1L106.59 16.1582ZM67.082 29.0195C73.1841 29.0519 79.9677 33.3383 85.5713 38.1904C88.2948 40.5487 90.5956 42.913 92.2168 44.6904C92.6401 45.1545 93.0161 45.5774 93.3398 45.9482C93.0129 46.3383 92.6324 46.7868 92.2012 47.2783C90.5905 49.1141 88.3025 51.5538 85.5889 53.9834C82.8671 56.4202 79.7715 58.7979 76.5488 60.5518C73.3112 62.3137 70.102 63.3613 67.1045 63.3525C61.7642 63.3369 55.526 59.9945 50.2998 56.2256C48.1992 54.7107 46.3507 53.1924 44.9043 51.9316C45.5193 51.7232 46.1799 51.5019 46.8691 51.2666C49.5634 50.3468 52.7305 49.2512 55.4912 48.2578C56.8799 52.7423 61.0592 56 66 56C72.0751 56 76.9999 51.0751 77 45C76.9999 38.9249 72.0751 34 66 34C60.7646 34 56.3865 37.6584 55.2754 42.5576C52.2586 43.6669 48.3662 45.0181 45.1152 46.1279C43.3551 46.7288 41.7899 47.2569 40.665 47.6348C40.1028 47.8236 39.6502 47.9751 39.3389 48.0791C39.3167 48.0865 39.2951 48.0937 39.2744 48.1006H29.376C29.1804 46.4731 29.0598 44.8319 29.0186 43.1816H40.792L41.5762 42.4434L41.5811 42.4385C41.5862 42.4337 41.5953 42.4253 41.6074 42.4141C41.6319 42.3913 41.6707 42.3552 41.7227 42.3076C41.8268 42.2121 41.985 42.0684 42.1924 41.8838C42.6082 41.5136 43.2226 40.9787 43.999 40.335C45.5551 39.0448 47.7507 37.3285 50.3086 35.6191C55.5628 32.1079 61.8162 28.9918 67.082 29.0195ZM29.376 48.1006C29.5959 49.9309 29.911 51.7434 30.3164 53.5312H27.5918V48.1006H29.376ZM66 38.1562C69.7795 38.1562 72.8437 41.2205 72.8438 45C72.8437 48.7795 69.7795 51.8438 66 51.8438C62.2205 51.8437 59.1563 48.7795 59.1562 45C59.1563 41.2205 62.2205 38.1563 66 38.1562ZM96.8594 45.9141L99.0234 47.5537L100.293 45.8789L98.9893 44.2305L96.8594 45.9141ZM29 41.8955C29 42.3248 29.0079 42.7535 29.0186 43.1816H27.5918V37.752H29V41.8955Z" fill="url(#paint1_linear_3421_23563)"/>
</g>
<path d="M159.652 56.2188C160.18 56.3828 160.66 56.6172 161.094 56.9219C161.527 57.2266 161.896 57.6191 162.201 58.0996C162.506 58.5684 162.74 59.125 162.904 59.7695C163.068 60.4141 163.15 61.1523 163.15 61.9844V63.25C163.15 67.3281 161.111 69.3672 157.033 69.3672H143.234V44.1602H156.312C160.391 44.1602 162.43 46.2051 162.43 50.2949V50.752C162.43 52.1699 162.201 53.3301 161.744 54.2324C161.299 55.123 160.602 55.7852 159.652 56.2188ZM146.768 58.3809V65.834H156.928C157.877 65.834 158.562 65.6113 158.984 65.166C159.406 64.7207 159.617 64.0234 159.617 63.0742V61.123C159.617 60.1621 159.406 59.4648 158.984 59.0312C158.562 58.5977 157.877 58.3809 156.928 58.3809H146.768ZM146.768 47.6934V54.8652H156.453C157.32 54.8301 157.941 54.5957 158.316 54.1621C158.703 53.7168 158.896 53.0371 158.896 52.123V50.4707C158.896 49.5098 158.686 48.8066 158.264 48.3613C157.842 47.916 157.156 47.6934 156.207 47.6934H146.768ZM171.834 50.6465V69.3672H168.371V50.6465H171.834ZM168.195 43.4395H172.01V47.043H168.195V43.4395ZM177.793 54.1094C177.793 53.6289 177.881 53.1777 178.057 52.7559C178.244 52.334 178.49 51.9707 178.795 51.666C179.111 51.3496 179.48 51.1035 179.902 50.9277C180.324 50.7402 180.77 50.6465 181.238 50.6465H187.443C187.9 50.6465 188.334 50.7344 188.744 50.9102C189.154 51.0742 189.512 51.3086 189.816 51.6133C190.133 51.9062 190.385 52.2578 190.572 52.668C190.771 53.0664 190.877 53.4941 190.889 53.9512V50.6465H194.352V73.4629C194.352 73.9434 194.258 74.3945 194.07 74.8164C193.895 75.2383 193.648 75.6016 193.332 75.9062C193.027 76.2227 192.664 76.4688 192.242 76.6445C191.82 76.832 191.369 76.9258 190.889 76.9258H179.955V73.4629H190.889V68.6465H181.238C180.77 68.6465 180.324 68.5586 179.902 68.3828C179.48 68.1953 179.111 67.9492 178.795 67.6445C178.49 67.3281 178.244 66.959 178.057 66.5371C177.881 66.1152 177.793 65.6641 177.793 65.1836V54.1094ZM190.889 65.1836V54.1094H181.238V65.1836H190.889ZM224.076 65.7637C225.752 65.7637 227.041 65.3125 227.943 64.4102C228.846 63.5078 229.297 62.2188 229.297 60.543V52.9844C229.297 52.1641 229.18 51.4316 228.945 50.7871C228.711 50.1426 228.365 49.5977 227.908 49.1523C227.463 48.6953 226.918 48.3496 226.273 48.1152C225.629 47.8809 224.896 47.7637 224.076 47.7637H214.865V65.7637H224.076ZM211.262 69.3672V44.1602H224.076C225.424 44.1602 226.637 44.3711 227.715 44.793C228.805 45.2031 229.73 45.7949 230.492 46.5684C231.266 47.3301 231.857 48.2559 232.268 49.3457C232.689 50.4355 232.9 51.6484 232.9 52.9844V60.543C232.9 61.8789 232.689 63.0918 232.268 64.1816C231.857 65.2715 231.266 66.2031 230.492 66.9766C229.73 67.7383 228.805 68.3301 227.715 68.752C226.637 69.1621 225.424 69.3672 224.076 69.3672H211.262ZM238.332 61.1934C238.332 60.7129 238.42 60.2676 238.596 59.8574C238.783 59.4355 239.029 59.0664 239.334 58.75C239.65 58.4336 240.02 58.1875 240.441 58.0117C240.863 57.8242 241.309 57.7305 241.777 57.7305H250.707V54.1094H239.404V50.6465H250.707C251.188 50.6465 251.639 50.7402 252.061 50.9277C252.482 51.1035 252.846 51.3496 253.15 51.666C253.467 51.9707 253.713 52.334 253.889 52.7559C254.076 53.1777 254.17 53.6289 254.17 54.1094V69.3672H250.707V66.2031C250.672 66.6367 250.555 67.0469 250.355 67.4336C250.156 67.8203 249.898 68.1602 249.582 68.4531C249.277 68.7344 248.926 68.957 248.527 69.1211C248.129 69.2852 247.707 69.3672 247.262 69.3672H241.777C241.309 69.3672 240.863 69.2793 240.441 69.1035C240.02 68.916 239.65 68.6699 239.334 68.3652C239.029 68.0488 238.783 67.6797 238.596 67.2578C238.42 66.8359 238.332 66.3848 238.332 65.9043V61.1934ZM241.777 65.9043H250.707V61.1934H241.777V65.9043ZM258.863 50.6465H263.434V44.8809H266.896V50.6465H273.049V54.1094H266.896V65.9043H273.049V69.3672H266.896C266.428 69.3672 265.982 69.2793 265.561 69.1035C265.139 68.916 264.77 68.6699 264.453 68.3652C264.137 68.0488 263.885 67.6797 263.697 67.2578C263.521 66.8359 263.434 66.3848 263.434 65.9043V54.1094H258.863V50.6465ZM278.832 61.1934C278.832 60.7129 278.92 60.2676 279.096 59.8574C279.283 59.4355 279.529 59.0664 279.834 58.75C280.15 58.4336 280.52 58.1875 280.941 58.0117C281.363 57.8242 281.809 57.7305 282.277 57.7305H291.207V54.1094H279.904V50.6465H291.207C291.688 50.6465 292.139 50.7402 292.561 50.9277C292.982 51.1035 293.346 51.3496 293.65 51.666C293.967 51.9707 294.213 52.334 294.389 52.7559C294.576 53.1777 294.67 53.6289 294.67 54.1094V69.3672H291.207V66.2031C291.172 66.6367 291.055 67.0469 290.855 67.4336C290.656 67.8203 290.398 68.1602 290.082 68.4531C289.777 68.7344 289.426 68.957 289.027 69.1211C288.629 69.2852 288.207 69.3672 287.762 69.3672H282.277C281.809 69.3672 281.363 69.2793 280.941 69.1035C280.52 68.916 280.15 68.6699 279.834 68.3652C279.529 68.0488 279.283 67.6797 279.096 67.2578C278.92 66.8359 278.832 66.3848 278.832 65.9043V61.1934ZM282.277 65.9043H291.207V61.1934H282.277V65.9043ZM322.76 44.1602L332.48 69.3672H328.877L326.645 63.5664H315.271L313.039 69.3672H309.436L319.156 44.1602H322.76ZM316.643 59.9629H325.256L320.967 48.8535L316.643 59.9629ZM353.012 69.3672H349.549V54.1094H339.898V69.3672H336.453V50.6465H339.898V53.9512C339.922 53.4941 340.027 53.0664 340.215 52.668C340.402 52.2578 340.648 51.9062 340.953 51.6133C341.27 51.3086 341.633 51.0742 342.043 50.9102C342.453 50.7344 342.893 50.6465 343.361 50.6465H349.549C350.029 50.6465 350.48 50.7402 350.902 50.9277C351.324 51.1035 351.688 51.3496 351.992 51.666C352.309 51.9707 352.555 52.334 352.73 52.7559C352.918 53.1777 353.012 53.6289 353.012 54.1094V69.3672ZM358.777 61.1934C358.777 60.7129 358.865 60.2676 359.041 59.8574C359.229 59.4355 359.475 59.0664 359.779 58.75C360.096 58.4336 360.465 58.1875 360.887 58.0117C361.309 57.8242 361.754 57.7305 362.223 57.7305H371.152V54.1094H359.85V50.6465H371.152C371.633 50.6465 372.084 50.7402 372.506 50.9277C372.928 51.1035 373.291 51.3496 373.596 51.666C373.912 51.9707 374.158 52.334 374.334 52.7559C374.521 53.1777 374.615 53.6289 374.615 54.1094V69.3672H371.152V66.2031C371.117 66.6367 371 67.0469 370.801 67.4336C370.602 67.8203 370.344 68.1602 370.027 68.4531C369.723 68.7344 369.371 68.957 368.973 69.1211C368.574 69.2852 368.152 69.3672 367.707 69.3672H362.223C361.754 69.3672 361.309 69.2793 360.887 69.1035C360.465 68.916 360.096 68.6699 359.779 68.3652C359.475 68.0488 359.229 67.6797 359.041 67.2578C358.865 66.8359 358.777 66.3848 358.777 65.9043V61.1934ZM362.223 65.9043H371.152V61.1934H362.223V65.9043ZM383.844 43.4395V69.3672H380.398V43.4395H383.844ZM390.875 76.9258L394.795 67.6797L387.447 50.6465H391.086L396.553 63.5312L402.02 50.6465H405.658L394.32 76.9258H390.875ZM420.564 65.9043V61.5625H412.355C411.875 61.5625 411.424 61.4746 411.002 61.2988C410.58 61.1113 410.211 60.8652 409.895 60.5605C409.59 60.2441 409.344 59.875 409.156 59.4531C408.98 59.0312 408.893 58.5801 408.893 58.0996V54.1094C408.893 53.6289 408.98 53.1777 409.156 52.7559C409.344 52.334 409.59 51.9707 409.895 51.666C410.211 51.3496 410.58 51.1035 411.002 50.9277C411.424 50.7402 411.875 50.6465 412.355 50.6465H423.307V54.1094H412.355V58.0996H420.564C421.045 58.0996 421.49 58.1934 421.9 58.3809C422.322 58.5566 422.691 58.8027 423.008 59.1191C423.324 59.4238 423.57 59.7871 423.746 60.209C423.934 60.6309 424.027 61.082 424.027 61.5625V65.9043C424.027 66.3848 423.934 66.8359 423.746 67.2578C423.57 67.6797 423.324 68.0488 423.008 68.3652C422.691 68.6699 422.322 68.916 421.9 69.1035C421.49 69.2793 421.045 69.3672 420.564 69.3672H408.893V65.9043H420.564ZM433.08 50.6465V69.3672H429.617V50.6465H433.08ZM429.441 43.4395H433.256V47.043H429.441V43.4395ZM450.342 65.9043V61.5625H442.133C441.652 61.5625 441.201 61.4746 440.779 61.2988C440.357 61.1113 439.988 60.8652 439.672 60.5605C439.367 60.2441 439.121 59.875 438.934 59.4531C438.758 59.0312 438.67 58.5801 438.67 58.0996V54.1094C438.67 53.6289 438.758 53.1777 438.934 52.7559C439.121 52.334 439.367 51.9707 439.672 51.666C439.988 51.3496 440.357 51.1035 440.779 50.9277C441.201 50.7402 441.652 50.6465 442.133 50.6465H453.084V54.1094H442.133V58.0996H450.342C450.822 58.0996 451.268 58.1934 451.678 58.3809C452.1 58.5566 452.469 58.8027 452.785 59.1191C453.102 59.4238 453.348 59.7871 453.523 60.209C453.711 60.6309 453.805 61.082 453.805 61.5625V65.9043C453.805 66.3848 453.711 66.8359 453.523 67.2578C453.348 67.6797 453.102 68.0488 452.785 68.3652C452.469 68.6699 452.1 68.916 451.678 69.1035C451.268 69.2793 450.822 69.3672 450.342 69.3672H438.67V65.9043H450.342ZM470.363 69.3672V44.1602H484.162C488.24 44.1602 490.279 46.2051 490.279 50.2949V53.8809C490.279 57.9707 488.24 60.0156 484.162 60.0156H473.967V69.3672H470.363ZM473.967 56.4121H483.969C484.93 56.4121 485.621 56.2012 486.043 55.7793C486.465 55.3574 486.676 54.666 486.676 53.7051V50.4707C486.676 49.5098 486.465 48.8184 486.043 48.3965C485.621 47.9746 484.93 47.7637 483.969 47.7637H473.967V56.4121ZM498.418 43.4395V69.3672H494.973V43.4395H498.418ZM504.184 61.1934C504.184 60.7129 504.271 60.2676 504.447 59.8574C504.635 59.4355 504.881 59.0664 505.186 58.75C505.502 58.4336 505.871 58.1875 506.293 58.0117C506.715 57.8242 507.16 57.7305 507.629 57.7305H516.559V54.1094H505.256V50.6465H516.559C517.039 50.6465 517.49 50.7402 517.912 50.9277C518.334 51.1035 518.697 51.3496 519.002 51.666C519.318 51.9707 519.564 52.334 519.74 52.7559C519.928 53.1777 520.021 53.6289 520.021 54.1094V69.3672H516.559V66.2031C516.523 66.6367 516.406 67.0469 516.207 67.4336C516.008 67.8203 515.75 68.1602 515.434 68.4531C515.129 68.7344 514.777 68.957 514.379 69.1211C513.98 69.2852 513.559 69.3672 513.113 69.3672H507.629C507.16 69.3672 506.715 69.2793 506.293 69.1035C505.871 68.916 505.502 68.6699 505.186 68.3652C504.881 68.0488 504.635 67.6797 504.447 67.2578C504.271 66.8359 504.184 66.3848 504.184 65.9043V61.1934ZM507.629 65.9043H516.559V61.1934H507.629V65.9043ZM524.715 50.6465H529.285V44.8809H532.748V50.6465H538.9V54.1094H532.748V65.9043H538.9V69.3672H532.748C532.279 69.3672 531.834 69.2793 531.412 69.1035C530.99 68.916 530.621 68.6699 530.305 68.3652C529.988 68.0488 529.736 67.6797 529.549 67.2578C529.373 66.8359 529.285 66.3848 529.285 65.9043V54.1094H524.715V50.6465ZM551.627 46.9023V50.6465H557.779V54.1094H551.627V69.3672H548.164V54.1094H543.594V50.6465H548.164V46.9023C548.164 46.4219 548.252 45.9766 548.428 45.5664C548.615 45.1445 548.867 44.7754 549.184 44.459C549.5 44.1426 549.869 43.8965 550.291 43.7207C550.713 43.5332 551.158 43.4395 551.627 43.4395H557.779V46.9023H551.627ZM578.662 65.9043C578.662 66.3848 578.568 66.8359 578.381 67.2578C578.205 67.6797 577.959 68.0488 577.643 68.3652C577.338 68.6699 576.975 68.916 576.553 69.1035C576.143 69.2793 575.697 69.3672 575.217 69.3672H565.918C565.449 69.3672 565.004 69.2793 564.582 69.1035C564.16 68.916 563.791 68.6699 563.475 68.3652C563.17 68.0488 562.924 67.6797 562.736 67.2578C562.561 66.8359 562.473 66.3848 562.473 65.9043V54.1094C562.473 53.6289 562.561 53.1777 562.736 52.7559C562.924 52.334 563.17 51.9707 563.475 51.666C563.791 51.3496 564.16 51.1035 564.582 50.9277C565.004 50.7402 565.449 50.6465 565.918 50.6465H575.217C575.697 50.6465 576.143 50.7402 576.553 50.9277C576.975 51.1035 577.338 51.3496 577.643 51.666C577.959 51.9707 578.205 52.334 578.381 52.7559C578.568 53.1777 578.662 53.6289 578.662 54.1094V65.9043ZM565.918 54.1094V65.9043H575.217V54.1094H565.918ZM587.891 54.1094V69.3672H584.445V50.6465H587.891V53.9512C587.914 53.4941 588.02 53.0664 588.207 52.668C588.395 52.2578 588.641 51.9062 588.945 51.6133C589.262 51.3086 589.625 51.0742 590.035 50.9102C590.445 50.7344 590.885 50.6465 591.354 50.6465H595.027C595.508 50.6465 595.953 50.7402 596.363 50.9277C596.785 51.1035 597.154 51.3496 597.471 51.666C597.787 51.9707 598.033 52.334 598.209 52.7559C598.396 53.1777 598.49 53.6289 598.49 54.1094V57.2734H595.027V54.1094H587.891ZM617.633 54.1094V69.3672H614.17V54.1094H606.242V69.3672H602.797V50.6465H606.242V53.9512C606.266 53.4941 606.371 53.0664 606.559 52.668C606.746 52.2578 606.992 51.9062 607.297 51.6133C607.613 51.3086 607.977 51.0742 608.387 50.9102C608.797 50.7344 609.236 50.6465 609.705 50.6465H614.17C614.627 50.6465 615.061 50.7344 615.471 50.9102C615.881 51.0742 616.244 51.3086 616.561 51.6133C616.877 51.9062 617.129 52.2578 617.316 52.668C617.516 53.0664 617.621 53.4941 617.633 53.9512C617.656 53.4941 617.756 53.0664 617.932 52.668C618.119 52.2578 618.365 51.9062 618.67 51.6133C618.986 51.3086 619.35 51.0742 619.76 50.9102C620.17 50.7344 620.609 50.6465 621.078 50.6465H625.543C626.023 50.6465 626.475 50.7402 626.896 50.9277C627.318 51.1035 627.682 51.3496 627.986 51.666C628.303 51.9707 628.549 52.334 628.725 52.7559C628.912 53.1777 629.006 53.6289 629.006 54.1094V69.3672H625.543V54.1094H617.633Z" fill="#EDC702"/>
<path d="M159.652 56.2188L159.163 55.1476L156.36 56.4279L159.303 57.3432L159.652 56.2188ZM162.201 58.0996L161.207 58.7303L161.214 58.7414L162.201 58.0996ZM143.234 69.3672H142.057V70.5448H143.234V69.3672ZM143.234 44.1602V42.9825H142.057V44.1602H143.234ZM161.744 54.2324L160.694 53.7003L160.691 53.7058L161.744 54.2324ZM146.768 58.3809V57.2032H145.59V58.3809H146.768ZM146.768 65.834H145.59V67.0116H146.768V65.834ZM146.768 47.6934V46.5157H145.59V47.6934H146.768ZM146.768 54.8652H145.59V56.0429H146.768V54.8652ZM156.453 54.8652V56.0429H156.477L156.501 56.0419L156.453 54.8652ZM158.316 54.1621L157.427 53.3899L157.426 53.3917L158.316 54.1621ZM159.652 56.2188L159.303 57.3432C159.718 57.4725 160.087 57.654 160.417 57.8854L161.094 56.9219L161.771 55.9583C161.233 55.5804 160.641 55.2931 160.002 55.0943L159.652 56.2188ZM161.094 56.9219L160.417 57.8854C160.714 58.0947 160.979 58.3708 161.207 58.7303L162.201 58.0996L163.196 57.4689C162.814 56.8674 162.34 56.3584 161.771 55.9583L161.094 56.9219ZM162.201 58.0996L161.214 58.7414C161.436 59.084 161.625 59.5172 161.763 60.06L162.904 59.7695L164.046 59.479C163.856 58.7328 163.575 58.0527 163.189 57.4578L162.201 58.0996ZM162.904 59.7695L161.763 60.06C161.898 60.5894 161.973 61.227 161.973 61.9844H163.15H164.328C164.328 61.0777 164.239 60.2387 164.046 59.479L162.904 59.7695ZM163.15 61.9844H161.973V63.25H163.15H164.328V61.9844H163.15ZM163.15 63.25H161.973C161.973 65.1075 161.509 66.2844 160.788 67.0052C160.068 67.7259 158.891 68.1895 157.033 68.1895V69.3672V70.5448C159.254 70.5448 161.136 69.9889 162.454 68.6706C163.772 67.3523 164.328 65.4706 164.328 63.25H163.15ZM157.033 69.3672V68.1895H143.234V69.3672V70.5448H157.033V69.3672ZM143.234 69.3672H144.412V44.1602H143.234H142.057V69.3672H143.234ZM143.234 44.1602V45.3378H156.312V44.1602V42.9825H143.234V44.1602ZM156.312 44.1602V45.3378C158.169 45.3378 159.346 45.8024 160.066 46.5254C160.788 47.249 161.252 48.4307 161.252 50.2949H162.43H163.607C163.607 48.0693 163.052 46.1836 161.734 44.8623C160.416 43.5404 158.534 42.9825 156.312 42.9825V44.1602ZM162.43 50.2949H161.252V50.752H162.43H163.607V50.2949H162.43ZM162.43 50.752H161.252C161.252 52.0549 161.04 53.0156 160.694 53.7003L161.744 54.2324L162.795 54.7645C163.362 53.6446 163.607 52.285 163.607 50.752H162.43ZM161.744 54.2324L160.691 53.7058C160.372 54.3436 159.88 54.8199 159.163 55.1476L159.652 56.2188L160.142 57.2899C161.323 56.7504 162.226 55.9025 162.797 54.7591L161.744 54.2324ZM146.768 58.3809H145.59V65.834H146.768H147.945V58.3809H146.768ZM146.768 65.834V67.0116H156.928V65.834V64.6563H146.768V65.834ZM156.928 65.834V67.0116C158.026 67.0116 159.098 66.758 159.839 65.9759L158.984 65.166L158.129 64.3561C158.027 64.4647 157.728 64.6563 156.928 64.6563V65.834ZM158.984 65.166L159.839 65.9759C160.557 65.2184 160.795 64.1651 160.795 63.0742H159.617H158.44C158.44 63.8818 158.256 64.223 158.129 64.3561L158.984 65.166ZM159.617 63.0742H160.795V61.123H159.617H158.44V63.0742H159.617ZM159.617 61.123H160.795C160.795 60.0289 160.561 58.9625 159.828 58.21L158.984 59.0312L158.14 59.8525C158.252 59.9672 158.44 60.2953 158.44 61.123H159.617ZM158.984 59.0312L159.828 58.21C159.086 57.4474 158.019 57.2032 156.928 57.2032V58.3809V59.5585C157.735 59.5585 158.039 59.748 158.14 59.8525L158.984 59.0312ZM156.928 58.3809V57.2032H146.768V58.3809V59.5585H156.928V58.3809ZM146.768 47.6934H145.59V54.8652H146.768H147.945V47.6934H146.768ZM146.768 54.8652V56.0429H156.453V54.8652V53.6876H146.768V54.8652ZM156.453 54.8652L156.501 56.0419C157.527 56.0003 158.531 55.7146 159.207 54.9325L158.316 54.1621L157.426 53.3917C157.352 53.4768 157.114 53.6598 156.405 53.6885L156.453 54.8652ZM158.316 54.1621L159.206 54.9343C159.857 54.1841 160.074 53.1718 160.074 52.123H158.896H157.719C157.719 52.9025 157.549 53.2495 157.427 53.3899L158.316 54.1621ZM158.896 52.123H160.074V50.4707H158.896H157.719V52.123H158.896ZM158.896 50.4707H160.074C160.074 49.3729 159.838 48.3111 159.119 47.5514L158.264 48.3613L157.409 49.1713C157.533 49.3022 157.719 49.6467 157.719 50.4707H158.896ZM158.264 48.3613L159.119 47.5514C158.378 46.7694 157.305 46.5157 156.207 46.5157V47.6934V48.871C157.007 48.871 157.306 49.0627 157.409 49.1713L158.264 48.3613ZM156.207 47.6934V46.5157H146.768V47.6934V48.871H156.207V47.6934ZM171.834 50.6465H173.012V49.4688H171.834V50.6465ZM171.834 69.3672V70.5448H173.012V69.3672H171.834ZM168.371 69.3672H167.193V70.5448H168.371V69.3672ZM168.371 50.6465V49.4688H167.193V50.6465H168.371ZM168.195 43.4395V42.2618H167.018V43.4395H168.195ZM172.01 43.4395H173.187V42.2618H172.01V43.4395ZM172.01 47.043V48.2206H173.187V47.043H172.01ZM168.195 47.043H167.018V48.2206H168.195V47.043ZM171.834 50.6465H170.656V69.3672H171.834H173.012V50.6465H171.834ZM171.834 69.3672V68.1895H168.371V69.3672V70.5448H171.834V69.3672ZM168.371 69.3672H169.549V50.6465H168.371H167.193V69.3672H168.371ZM168.371 50.6465V51.8241H171.834V50.6465V49.4688H168.371V50.6465ZM168.195 43.4395V44.6171H172.01V43.4395V42.2618H168.195V43.4395ZM172.01 43.4395H170.832V47.043H172.01H173.187V43.4395H172.01ZM172.01 47.043V45.8653H168.195V47.043V48.2206H172.01V47.043ZM168.195 47.043H169.373V43.4395H168.195H167.018V47.043H168.195ZM178.057 52.7559L176.98 52.2776L176.975 52.2902L176.97 52.3029L178.057 52.7559ZM179.902 50.9277L180.355 52.0148L180.368 52.0095L180.381 52.0039L179.902 50.9277ZM188.744 50.9102L188.28 51.9926L188.293 51.9982L188.307 52.0036L188.744 50.9102ZM189.816 51.6133L188.984 52.446L189 52.462L189.016 52.4774L189.816 51.6133ZM190.572 52.668L189.501 53.1576L189.51 53.1763L189.519 53.1946L190.572 52.668ZM190.889 53.9512L189.711 53.9814L192.066 53.9512H190.889ZM190.889 50.6465V49.4688H189.711V50.6465H190.889ZM194.352 50.6465H195.529V49.4688H194.352V50.6465ZM194.07 74.8164L192.994 74.3381L192.989 74.3507L192.983 74.3635L194.07 74.8164ZM193.332 75.9062L192.515 75.058L192.499 75.0734L192.484 75.0894L193.332 75.9062ZM192.242 76.6445L191.789 75.5575L191.777 75.5628L191.764 75.5684L192.242 76.6445ZM179.955 76.9258H178.777V78.1034H179.955V76.9258ZM179.955 73.4629V72.2852H178.777V73.4629H179.955ZM190.889 73.4629V74.6405H192.066V73.4629H190.889ZM190.889 68.6465H192.066V67.4688H190.889V68.6465ZM179.902 68.3828L179.424 69.459L179.437 69.4646L179.449 69.4699L179.902 68.3828ZM178.795 67.6445L177.947 68.4614L177.962 68.4774L177.978 68.4928L178.795 67.6445ZM178.057 66.5371L176.97 66.9901L176.975 67.0028L176.98 67.0154L178.057 66.5371ZM190.889 65.1836V66.3612H192.066V65.1836H190.889ZM190.889 54.1094H192.066V52.9317H190.889V54.1094ZM181.238 54.1094V52.9317H180.061V54.1094H181.238ZM181.238 65.1836H180.061V66.3612H181.238V65.1836ZM177.793 54.1094H178.971C178.971 53.7763 179.031 53.4799 179.144 53.2088L178.057 52.7559L176.97 52.3029C176.731 52.8756 176.615 53.4815 176.615 54.1094H177.793ZM178.057 52.7559L179.133 53.2342C179.266 52.9349 179.432 52.6941 179.628 52.4987L178.795 51.666L177.962 50.8333C177.548 51.2473 177.222 51.7331 176.98 52.2776L178.057 52.7559ZM178.795 51.666L179.628 52.4987C179.833 52.2935 180.072 52.1327 180.355 52.0148L179.902 50.9277L179.449 49.8407C178.889 50.0743 178.39 50.4058 177.962 50.8333L178.795 51.666ZM179.902 50.9277L180.381 52.0039C180.65 51.8844 180.932 51.8241 181.238 51.8241V50.6465V49.4688C180.607 49.4688 179.999 49.5961 179.424 49.8516L179.902 50.9277ZM181.238 50.6465V51.8241H187.443V50.6465V49.4688H181.238V50.6465ZM187.443 50.6465V51.8241C187.745 51.8241 188.02 51.8812 188.28 51.9926L188.744 50.9102L189.208 49.8277C188.648 49.5876 188.056 49.4688 187.443 49.4688V50.6465ZM188.744 50.9102L188.307 52.0036C188.573 52.1099 188.795 52.257 188.984 52.446L189.816 51.6133L190.649 50.7806C190.229 50.3602 189.736 50.0385 189.182 49.8167L188.744 50.9102ZM189.816 51.6133L189.016 52.4774C189.213 52.6598 189.375 52.8823 189.501 53.1576L190.572 52.668L191.643 52.1783C191.394 51.6333 191.052 51.1527 190.617 50.7492L189.816 51.6133ZM190.572 52.668L189.519 53.1946C189.639 53.4345 189.704 53.6922 189.711 53.9814L190.889 53.9512L192.066 53.921C192.05 53.2961 191.904 52.6983 191.626 52.1413L190.572 52.668ZM190.889 53.9512H192.066V50.6465H190.889H189.711V53.9512H190.889ZM190.889 50.6465V51.8241H194.352V50.6465V49.4688H190.889V50.6465ZM194.352 50.6465H193.174V73.4629H194.352H195.529V50.6465H194.352ZM194.352 73.4629H193.174C193.174 73.7855 193.112 74.073 192.994 74.3381L194.07 74.8164L195.146 75.2947C195.404 74.7161 195.529 74.1013 195.529 73.4629H194.352ZM194.07 74.8164L192.983 74.3635C192.867 74.6426 192.711 74.8697 192.515 75.058L193.332 75.9062L194.149 76.7545C194.586 76.3334 194.922 75.834 195.157 75.2694L194.07 74.8164ZM193.332 75.9062L192.484 75.0894C192.295 75.2849 192.068 75.4412 191.789 75.5575L192.242 76.6445L192.695 77.7316C193.26 77.4963 193.759 77.1604 194.18 76.7231L193.332 75.9062ZM192.242 76.6445L191.764 75.5684C191.499 75.6862 191.211 75.7481 190.889 75.7481V76.9258V78.1034C191.527 78.1034 192.142 77.9778 192.72 77.7207L192.242 76.6445ZM190.889 76.9258V75.7481H179.955V76.9258V78.1034H190.889V76.9258ZM179.955 76.9258H181.133V73.4629H179.955H178.777V76.9258H179.955ZM179.955 73.4629V74.6405H190.889V73.4629V72.2852H179.955V73.4629ZM190.889 73.4629H192.066V68.6465H190.889H189.711V73.4629H190.889ZM190.889 68.6465V67.4688H181.238V68.6465V69.8241H190.889V68.6465ZM181.238 68.6465V67.4688C180.921 67.4688 180.63 67.4102 180.355 67.2957L179.902 68.3828L179.449 69.4699C180.019 69.707 180.618 69.8241 181.238 69.8241V68.6465ZM179.902 68.3828L180.381 67.3067C180.078 67.172 179.824 67.0011 179.612 66.7962L178.795 67.6445L177.978 68.4928C178.398 68.8974 178.883 69.2187 179.424 69.459L179.902 68.3828ZM178.795 67.6445L179.643 66.8277C179.438 66.615 179.267 66.3619 179.133 66.0588L178.057 66.5371L176.98 67.0154C177.221 67.5561 177.542 68.0413 177.947 68.4614L178.795 67.6445ZM178.057 66.5371L179.144 66.0842C179.031 65.8131 178.971 65.5167 178.971 65.1836H177.793H176.615C176.615 65.8114 176.731 66.4174 176.97 66.9901L178.057 66.5371ZM177.793 65.1836H178.971V54.1094H177.793H176.615V65.1836H177.793ZM190.889 65.1836H192.066V54.1094H190.889H189.711V65.1836H190.889ZM190.889 54.1094V52.9317H181.238V54.1094V55.287H190.889V54.1094ZM181.238 54.1094H180.061V65.1836H181.238H182.416V54.1094H181.238ZM181.238 65.1836V66.3612H190.889V65.1836V64.0059H181.238V65.1836ZM227.908 49.1523L227.065 49.9742L227.075 49.9851L227.086 49.9958L227.908 49.1523ZM214.865 47.7637V46.586H213.688V47.7637H214.865ZM214.865 65.7637H213.688V66.9413H214.865V65.7637ZM211.262 69.3672H210.084V70.5448H211.262V69.3672ZM211.262 44.1602V42.9825H210.084V44.1602H211.262ZM227.715 44.793L227.286 45.8897L227.293 45.8925L227.3 45.8952L227.715 44.793ZM230.492 46.5684L229.653 47.3947L229.659 47.4011L229.666 47.4074L230.492 46.5684ZM232.268 49.3457L231.165 49.7605L231.169 49.7708L232.268 49.3457ZM232.268 64.1816L231.169 63.7565L231.165 63.7668L232.268 64.1816ZM227.715 68.752L228.134 69.8527L228.14 69.8502L227.715 68.752ZM224.076 65.7637V66.9413C225.963 66.9413 227.59 66.4288 228.776 65.2429L227.943 64.4102L227.111 63.5774C226.492 64.1962 225.541 64.586 224.076 64.586V65.7637ZM227.943 64.4102L228.776 65.2429C229.962 64.0569 230.475 62.4295 230.475 60.543H229.297H228.119C228.119 62.008 227.729 62.9587 227.111 63.5774L227.943 64.4102ZM229.297 60.543H230.475V52.9844H229.297H228.119V60.543H229.297ZM229.297 52.9844H230.475C230.475 52.053 230.342 51.1807 230.052 50.3847L228.945 50.7871L227.839 51.1896C228.018 51.6826 228.119 52.2751 228.119 52.9844H229.297ZM228.945 50.7871L230.052 50.3847C229.762 49.5862 229.323 48.887 228.73 48.3089L227.908 49.1523L227.086 49.9958C227.407 50.3083 227.66 50.6989 227.839 51.1896L228.945 50.7871ZM227.908 49.1523L228.752 48.3305C228.174 47.7372 227.474 47.2988 226.676 47.0085L226.273 48.1152L225.871 49.222C226.362 49.4004 226.752 49.6534 227.065 49.9742L227.908 49.1523ZM226.273 48.1152L226.676 47.0085C225.88 46.719 225.008 46.586 224.076 46.586V47.7637V48.9413C224.785 48.9413 225.378 49.0427 225.871 49.222L226.273 48.1152ZM224.076 47.7637V46.586H214.865V47.7637V48.9413H224.076V47.7637ZM214.865 47.7637H213.688V65.7637H214.865H216.043V47.7637H214.865ZM214.865 65.7637V66.9413H224.076V65.7637V64.586H214.865V65.7637ZM211.262 69.3672H212.439V44.1602H211.262H210.084V69.3672H211.262ZM211.262 44.1602V45.3378H224.076V44.1602V42.9825H211.262V44.1602ZM224.076 44.1602V45.3378C225.301 45.3378 226.365 45.5293 227.286 45.8897L227.715 44.793L228.144 43.6963C226.909 43.2129 225.547 42.9825 224.076 42.9825V44.1602ZM227.715 44.793L227.3 45.8952C228.242 46.2496 229.02 46.7516 229.653 47.3947L230.492 46.5684L231.331 45.742C230.441 44.8383 229.367 44.1566 228.13 43.6908L227.715 44.793ZM230.492 46.5684L229.666 47.4074C230.309 48.0408 230.811 48.8186 231.165 49.7605L232.268 49.3457L233.37 48.9309C232.904 47.6931 232.222 46.6193 231.319 45.7293L230.492 46.5684ZM232.268 49.3457L231.169 49.7708C231.532 50.7071 231.723 51.7732 231.723 52.9844H232.9H234.078C234.078 51.5236 233.847 50.164 233.366 48.9206L232.268 49.3457ZM232.9 52.9844H231.723V60.543H232.9H234.078V52.9844H232.9ZM232.9 60.543H231.723C231.723 61.7541 231.532 62.8202 231.169 63.7565L232.268 64.1816L233.366 64.6068C233.847 63.3634 234.078 62.0037 234.078 60.543H232.9ZM232.268 64.1816L231.165 63.7668C230.81 64.7101 230.307 65.4965 229.659 66.1438L230.492 66.9766L231.325 67.8093C232.224 66.9098 232.904 65.8329 233.37 64.5964L232.268 64.1816ZM230.492 66.9766L229.659 66.1438C229.023 66.7801 228.24 67.2859 227.29 67.6537L227.715 68.752L228.14 69.8502C229.37 69.3742 230.438 68.6965 231.325 67.8093L230.492 66.9766ZM227.715 68.752L227.296 67.6513C226.372 68.0027 225.304 68.1895 224.076 68.1895V69.3672V70.5448C225.543 70.5448 226.901 70.3215 228.134 69.8526L227.715 68.752ZM224.076 69.3672V68.1895H211.262V69.3672V70.5448H224.076V69.3672ZM238.596 59.8574L237.52 59.3791L237.516 59.3863L237.513 59.3935L238.596 59.8574ZM239.334 58.75L238.501 57.9173L238.493 57.9251L238.486 57.9331L239.334 58.75ZM240.441 58.0117L240.894 59.0988L240.907 59.0935L240.92 59.0879L240.441 58.0117ZM250.707 57.7305V58.9081H251.885V57.7305H250.707ZM250.707 54.1094H251.885V52.9317H250.707V54.1094ZM239.404 54.1094H238.227V55.287H239.404V54.1094ZM239.404 50.6465V49.4688H238.227V50.6465H239.404ZM252.061 50.9277L251.582 52.0039L251.595 52.0095L251.608 52.0148L252.061 50.9277ZM253.15 51.666L252.302 52.4829L252.318 52.4989L252.334 52.5143L253.15 51.666ZM253.889 52.7559L252.802 53.2088L252.807 53.2215L252.813 53.2342L253.889 52.7559ZM254.17 69.3672V70.5448H255.348V69.3672H254.17ZM250.707 69.3672H249.529V70.5448H250.707V69.3672ZM250.707 66.2031H251.885L249.533 66.108L250.707 66.2031ZM249.582 68.4531L250.381 69.3185L250.382 69.3172L249.582 68.4531ZM240.441 69.1035L239.963 70.1797L239.976 70.1853L239.988 70.1906L240.441 69.1035ZM239.334 68.3652L238.486 69.1821L238.501 69.1981L238.517 69.2135L239.334 68.3652ZM238.596 67.2578L237.509 67.7108L237.514 67.7235L237.52 67.7361L238.596 67.2578ZM241.777 65.9043H240.6V67.082H241.777V65.9043ZM250.707 65.9043V67.082H251.885V65.9043H250.707ZM250.707 61.1934H251.885V60.0157H250.707V61.1934ZM241.777 61.1934V60.0157H240.6V61.1934H241.777ZM238.332 61.1934H239.51C239.51 60.86 239.57 60.5739 239.678 60.3213L238.596 59.8574L237.513 59.3935C237.27 59.9612 237.154 60.5658 237.154 61.1934H238.332ZM238.596 59.8574L239.672 60.3357C239.807 60.0326 239.977 59.7796 240.182 59.5669L239.334 58.75L238.486 57.9331C238.081 58.3532 237.76 58.8384 237.52 59.3791L238.596 59.8574ZM239.334 58.75L240.167 59.5827C240.372 59.3774 240.611 59.2167 240.894 59.0988L240.441 58.0117L239.988 56.9247C239.428 57.1583 238.929 57.4897 238.501 57.9173L239.334 58.75ZM240.441 58.0117L240.92 59.0879C241.189 58.9683 241.471 58.9081 241.777 58.9081V57.7305V56.5528C241.146 56.5528 240.538 56.6801 239.963 56.9356L240.441 58.0117ZM241.777 57.7305V58.9081H250.707V57.7305V56.5528H241.777V57.7305ZM250.707 57.7305H251.885V54.1094H250.707H249.529V57.7305H250.707ZM250.707 54.1094V52.9317H239.404V54.1094V55.287H250.707V54.1094ZM239.404 54.1094H240.582V50.6465H239.404H238.227V54.1094H239.404ZM239.404 50.6465V51.8241H250.707V50.6465V49.4688H239.404V50.6465ZM250.707 50.6465V51.8241C251.03 51.8241 251.317 51.886 251.582 52.0039L252.061 50.9277L252.539 49.8516C251.96 49.5944 251.345 49.4688 250.707 49.4688V50.6465ZM252.061 50.9277L251.608 52.0148C251.887 52.1311 252.114 52.2874 252.302 52.4829L253.15 51.666L253.999 50.8491C253.578 50.4118 253.078 50.0759 252.513 49.8407L252.061 50.9277ZM253.15 51.666L252.334 52.5143C252.529 52.7026 252.685 52.9297 252.802 53.2088L253.889 52.7559L254.976 52.3029C254.74 51.7383 254.405 51.2388 253.967 50.8177L253.15 51.666ZM253.889 52.7559L252.813 53.2342C252.93 53.4993 252.992 53.7868 252.992 54.1094H254.17H255.348C255.348 53.471 255.222 52.8562 254.965 52.2776L253.889 52.7559ZM254.17 54.1094H252.992V69.3672H254.17H255.348V54.1094H254.17ZM254.17 69.3672V68.1895H250.707V69.3672V70.5448H254.17V69.3672ZM250.707 69.3672H251.885V66.2031H250.707H249.529V69.3672H250.707ZM250.707 66.2031L249.533 66.108C249.511 66.3866 249.437 66.6458 249.309 66.8943L250.355 67.4336L251.402 67.9729C251.673 67.448 251.833 66.8869 251.881 66.2983L250.707 66.2031ZM250.355 67.4336L249.309 66.8943C249.172 67.1603 248.997 67.39 248.782 67.589L249.582 68.4531L250.382 69.3172C250.8 68.9304 251.141 68.4803 251.402 67.9729L250.355 67.4336ZM249.582 68.4531L248.783 67.5878C248.585 67.7706 248.353 67.9191 248.079 68.0321L248.527 69.1211L248.976 70.21C249.498 69.9949 249.97 69.6981 250.381 69.3185L249.582 68.4531ZM248.527 69.1211L248.079 68.0321C247.828 68.1357 247.558 68.1895 247.262 68.1895V69.3672V70.5448C247.856 70.5448 248.43 70.4346 248.976 70.21L248.527 69.1211ZM247.262 69.3672V68.1895H241.777V69.3672V70.5448H247.262V69.3672ZM241.777 69.3672V68.1895C241.46 68.1895 241.169 68.1309 240.894 68.0164L240.441 69.1035L239.988 70.1906C240.558 70.4277 241.157 70.5448 241.777 70.5448V69.3672ZM240.441 69.1035L240.92 68.0274C240.617 67.8927 240.364 67.7218 240.151 67.5169L239.334 68.3652L238.517 69.2135C238.937 69.6181 239.422 69.9394 239.963 70.1797L240.441 69.1035ZM239.334 68.3652L240.182 67.5484C239.977 67.3357 239.807 67.0826 239.672 66.7795L238.596 67.2578L237.52 67.7361C237.76 68.2768 238.081 68.762 238.486 69.1821L239.334 68.3652ZM238.596 67.2578L239.683 66.8049C239.57 66.5338 239.51 66.2374 239.51 65.9043H238.332H237.154C237.154 66.5321 237.27 67.1381 237.509 67.7108L238.596 67.2578ZM238.332 65.9043H239.51V61.1934H238.332H237.154V65.9043H238.332ZM241.777 65.9043V67.082H250.707V65.9043V64.7266H241.777V65.9043ZM250.707 65.9043H251.885V61.1934H250.707H249.529V65.9043H250.707ZM250.707 61.1934V60.0157H241.777V61.1934V62.371H250.707V61.1934ZM241.777 61.1934H240.6V65.9043H241.777H242.955V61.1934H241.777ZM258.863 50.6465V49.4688H257.686V50.6465H258.863ZM263.434 50.6465V51.8241H264.611V50.6465H263.434ZM263.434 44.8809V43.7032H262.256V44.8809H263.434ZM266.896 44.8809H268.074V43.7032H266.896V44.8809ZM266.896 50.6465H265.719V51.8241H266.896V50.6465ZM273.049 50.6465H274.226V49.4688H273.049V50.6465ZM273.049 54.1094V55.287H274.226V54.1094H273.049ZM266.896 54.1094V52.9317H265.719V54.1094H266.896ZM266.896 65.9043H265.719V67.082H266.896V65.9043ZM273.049 65.9043H274.226V64.7266H273.049V65.9043ZM273.049 69.3672V70.5448H274.226V69.3672H273.049ZM265.561 69.1035L265.082 70.1797L265.095 70.1853L265.108 70.1906L265.561 69.1035ZM264.453 68.3652L263.62 69.198L263.628 69.2058L263.636 69.2135L264.453 68.3652ZM263.697 67.2578L262.61 67.7108L262.616 67.7235L262.621 67.7361L263.697 67.2578ZM263.434 54.1094H264.611V52.9317H263.434V54.1094ZM258.863 54.1094H257.686V55.287H258.863V54.1094ZM258.863 50.6465V51.8241H263.434V50.6465V49.4688H258.863V50.6465ZM263.434 50.6465H264.611V44.8809H263.434H262.256V50.6465H263.434ZM263.434 44.8809V46.0585H266.896V44.8809V43.7032H263.434V44.8809ZM266.896 44.8809H265.719V50.6465H266.896H268.074V44.8809H266.896ZM266.896 50.6465V51.8241H273.049V50.6465V49.4688H266.896V50.6465ZM273.049 50.6465H271.871V54.1094H273.049H274.226V50.6465H273.049ZM273.049 54.1094V52.9317H266.896V54.1094V55.287H273.049V54.1094ZM266.896 54.1094H265.719V65.9043H266.896H268.074V54.1094H266.896ZM266.896 65.9043V67.082H273.049V65.9043V64.7266H266.896V65.9043ZM273.049 65.9043H271.871V69.3672H273.049H274.226V65.9043H273.049ZM273.049 69.3672V68.1895H266.896V69.3672V70.5448H273.049V69.3672ZM266.896 69.3672V68.1895C266.579 68.1895 266.288 68.1309 266.013 68.0164L265.561 69.1035L265.108 70.1906C265.677 70.4277 266.276 70.5448 266.896 70.5448V69.3672ZM265.561 69.1035L266.039 68.0274C265.736 67.8927 265.483 67.7218 265.27 67.5169L264.453 68.3652L263.636 69.2135C264.056 69.6181 264.542 69.9394 265.082 70.1797L265.561 69.1035ZM264.453 68.3652L265.286 67.5325C265.075 67.3216 264.904 67.0736 264.773 66.7795L263.697 67.2578L262.621 67.7361C262.865 68.2858 263.199 68.7761 263.62 69.198L264.453 68.3652ZM263.697 67.2578L264.784 66.8049C264.671 66.5338 264.611 66.2374 264.611 65.9043H263.434H262.256C262.256 66.5321 262.372 67.1381 262.61 67.7108L263.697 67.2578ZM263.434 65.9043H264.611V54.1094H263.434H262.256V65.9043H263.434ZM263.434 54.1094V52.9317H258.863V54.1094V55.287H263.434V54.1094ZM258.863 54.1094H260.041V50.6465H258.863H257.686V54.1094H258.863ZM279.096 59.8574L278.02 59.3791L278.016 59.3863L278.013 59.3935L279.096 59.8574ZM279.834 58.75L279.001 57.9173L278.993 57.9251L278.986 57.9331L279.834 58.75ZM280.941 58.0117L281.394 59.0988L281.407 59.0935L281.42 59.0879L280.941 58.0117ZM291.207 57.7305V58.9081H292.385V57.7305H291.207ZM291.207 54.1094H292.385V52.9317H291.207V54.1094ZM279.904 54.1094H278.727V55.287H279.904V54.1094ZM279.904 50.6465V49.4688H278.727V50.6465H279.904ZM292.561 50.9277L292.082 52.0039L292.095 52.0095L292.108 52.0148L292.561 50.9277ZM293.65 51.666L292.802 52.4829L292.818 52.4989L292.834 52.5143L293.65 51.666ZM294.389 52.7559L293.302 53.2088L293.307 53.2215L293.313 53.2342L294.389 52.7559ZM294.67 69.3672V70.5448H295.848V69.3672H294.67ZM291.207 69.3672H290.029V70.5448H291.207V69.3672ZM291.207 66.2031H292.385L290.033 66.108L291.207 66.2031ZM290.082 68.4531L290.881 69.3185L290.882 69.3172L290.082 68.4531ZM280.941 69.1035L280.463 70.1797L280.476 70.1853L280.488 70.1906L280.941 69.1035ZM279.834 68.3652L278.986 69.1821L279.001 69.1981L279.017 69.2135L279.834 68.3652ZM279.096 67.2578L278.009 67.7108L278.014 67.7235L278.02 67.7361L279.096 67.2578ZM282.277 65.9043H281.1V67.082H282.277V65.9043ZM291.207 65.9043V67.082H292.385V65.9043H291.207ZM291.207 61.1934H292.385V60.0157H291.207V61.1934ZM282.277 61.1934V60.0157H281.1V61.1934H282.277ZM278.832 61.1934H280.01C280.01 60.86 280.07 60.5739 280.178 60.3213L279.096 59.8574L278.013 59.3935C277.77 59.9612 277.654 60.5658 277.654 61.1934H278.832ZM279.096 59.8574L280.172 60.3357C280.307 60.0326 280.477 59.7796 280.682 59.5669L279.834 58.75L278.986 57.9331C278.581 58.3532 278.26 58.8384 278.02 59.3791L279.096 59.8574ZM279.834 58.75L280.667 59.5827C280.872 59.3774 281.111 59.2167 281.394 59.0988L280.941 58.0117L280.488 56.9247C279.928 57.1583 279.429 57.4897 279.001 57.9173L279.834 58.75ZM280.941 58.0117L281.42 59.0879C281.689 58.9683 281.971 58.9081 282.277 58.9081V57.7305V56.5528C281.646 56.5528 281.038 56.6801 280.463 56.9356L280.941 58.0117ZM282.277 57.7305V58.9081H291.207V57.7305V56.5528H282.277V57.7305ZM291.207 57.7305H292.385V54.1094H291.207H290.029V57.7305H291.207ZM291.207 54.1094V52.9317H279.904V54.1094V55.287H291.207V54.1094ZM279.904 54.1094H281.082V50.6465H279.904H278.727V54.1094H279.904ZM279.904 50.6465V51.8241H291.207V50.6465V49.4688H279.904V50.6465ZM291.207 50.6465V51.8241C291.53 51.8241 291.817 51.886 292.082 52.0039L292.561 50.9277L293.039 49.8516C292.46 49.5944 291.845 49.4688 291.207 49.4688V50.6465ZM292.561 50.9277L292.108 52.0148C292.387 52.1311 292.614 52.2874 292.802 52.4829L293.65 51.666L294.499 50.8491C294.078 50.4118 293.578 50.0759 293.013 49.8407L292.561 50.9277ZM293.65 51.666L292.834 52.5143C293.029 52.7026 293.185 52.9297 293.302 53.2088L294.389 52.7559L295.476 52.3029C295.24 51.7383 294.905 51.2388 294.467 50.8177L293.65 51.666ZM294.389 52.7559L293.313 53.2342C293.43 53.4993 293.492 53.7868 293.492 54.1094H294.67H295.848C295.848 53.471 295.722 52.8562 295.465 52.2776L294.389 52.7559ZM294.67 54.1094H293.492V69.3672H294.67H295.848V54.1094H294.67ZM294.67 69.3672V68.1895H291.207V69.3672V70.5448H294.67V69.3672ZM291.207 69.3672H292.385V66.2031H291.207H290.029V69.3672H291.207ZM291.207 66.2031L290.033 66.108C290.011 66.3866 289.937 66.6458 289.809 66.8943L290.855 67.4336L291.902 67.9729C292.173 67.448 292.333 66.8869 292.381 66.2983L291.207 66.2031ZM290.855 67.4336L289.809 66.8943C289.672 67.1603 289.497 67.39 289.282 67.589L290.082 68.4531L290.882 69.3172C291.3 68.9304 291.641 68.4803 291.902 67.9729L290.855 67.4336ZM290.082 68.4531L289.283 67.5878C289.085 67.7706 288.853 67.9191 288.579 68.0321L289.027 69.1211L289.476 70.21C289.998 69.9949 290.47 69.6981 290.881 69.3185L290.082 68.4531ZM289.027 69.1211L288.579 68.0321C288.328 68.1357 288.058 68.1895 287.762 68.1895V69.3672V70.5448C288.356 70.5448 288.93 70.4346 289.476 70.21L289.027 69.1211ZM287.762 69.3672V68.1895H282.277V69.3672V70.5448H287.762V69.3672ZM282.277 69.3672V68.1895C281.96 68.1895 281.669 68.1309 281.394 68.0164L280.941 69.1035L280.488 70.1906C281.058 70.4277 281.657 70.5448 282.277 70.5448V69.3672ZM280.941 69.1035L281.42 68.0274C281.117 67.8927 280.864 67.7218 280.651 67.5169L279.834 68.3652L279.017 69.2135C279.437 69.6181 279.922 69.9394 280.463 70.1797L280.941 69.1035ZM279.834 68.3652L280.682 67.5484C280.477 67.3357 280.307 67.0826 280.172 66.7795L279.096 67.2578L278.02 67.7361C278.26 68.2768 278.581 68.762 278.986 69.1821L279.834 68.3652ZM279.096 67.2578L280.183 66.8049C280.07 66.5338 280.01 66.2374 280.01 65.9043H278.832H277.654C277.654 66.5321 277.77 67.1381 278.009 67.7108L279.096 67.2578ZM278.832 65.9043H280.01V61.1934H278.832H277.654V65.9043H278.832ZM282.277 65.9043V67.082H291.207V65.9043V64.7266H282.277V65.9043ZM291.207 65.9043H292.385V61.1934H291.207H290.029V65.9043H291.207ZM291.207 61.1934V60.0157H282.277V61.1934V62.371H291.207V61.1934ZM282.277 61.1934H281.1V65.9043H282.277H283.455V61.1934H282.277ZM322.76 44.1602L323.859 43.7364L323.568 42.9825H322.76V44.1602ZM332.48 69.3672V70.5448H334.197L333.579 68.9435L332.48 69.3672ZM328.877 69.3672L327.778 69.7902L328.068 70.5448H328.877V69.3672ZM326.645 63.5664L327.744 63.1434L327.453 62.3888H326.645V63.5664ZM315.271 63.5664V62.3888H314.463L314.172 63.1434L315.271 63.5664ZM313.039 69.3672V70.5448H313.848L314.138 69.7902L313.039 69.3672ZM309.436 69.3672L308.337 68.9435L307.719 70.5448H309.436V69.3672ZM319.156 44.1602V42.9825H318.348L318.057 43.7364L319.156 44.1602ZM316.643 59.9629L315.545 59.5357L314.92 61.1405H316.643V59.9629ZM325.256 59.9629V61.1405H326.973L326.354 59.5387L325.256 59.9629ZM320.967 48.8535L322.065 48.4294L320.971 45.5954L319.869 48.4263L320.967 48.8535ZM322.76 44.1602L321.661 44.5839L331.382 69.7909L332.48 69.3672L333.579 68.9435L323.859 43.7364L322.76 44.1602ZM332.48 69.3672V68.1895H328.877V69.3672V70.5448H332.48V69.3672ZM328.877 69.3672L329.976 68.9442L327.744 63.1434L326.645 63.5664L325.545 63.9894L327.778 69.7902L328.877 69.3672ZM326.645 63.5664V62.3888H315.271V63.5664V64.7441H326.645V63.5664ZM315.271 63.5664L314.172 63.1434L311.94 68.9442L313.039 69.3672L314.138 69.7902L316.371 63.9894L315.271 63.5664ZM313.039 69.3672V68.1895H309.436V69.3672V70.5448H313.039V69.3672ZM309.436 69.3672L310.534 69.7909L320.255 44.5839L319.156 44.1602L318.057 43.7364L308.337 68.9435L309.436 69.3672ZM319.156 44.1602V45.3378H322.76V44.1602V42.9825H319.156V44.1602ZM316.643 59.9629V61.1405H325.256V59.9629V58.7852H316.643V59.9629ZM325.256 59.9629L326.354 59.5387L322.065 48.4294L320.967 48.8535L319.868 49.2777L324.157 60.387L325.256 59.9629ZM320.967 48.8535L319.869 48.4263L315.545 59.5357L316.643 59.9629L317.74 60.3901L322.064 49.2807L320.967 48.8535ZM353.012 69.3672V70.5448H354.189V69.3672H353.012ZM349.549 69.3672H348.371V70.5448H349.549V69.3672ZM349.549 54.1094H350.726V52.9317H349.549V54.1094ZM339.898 54.1094V52.9317H338.721V54.1094H339.898ZM339.898 69.3672V70.5448H341.076V69.3672H339.898ZM336.453 69.3672H335.275V70.5448H336.453V69.3672ZM336.453 50.6465V49.4688H335.275V50.6465H336.453ZM339.898 50.6465H341.076V49.4688H339.898V50.6465ZM339.898 53.9512H338.721L341.075 54.0115L339.898 53.9512ZM340.215 52.668L341.28 53.1694L341.286 53.1576L340.215 52.668ZM340.953 51.6133L341.769 52.4622L341.77 52.4616L340.953 51.6133ZM342.043 50.9102L342.48 52.0036L342.494 51.9982L342.507 51.9926L342.043 50.9102ZM350.902 50.9277L350.424 52.0039L350.437 52.0095L350.449 52.0148L350.902 50.9277ZM351.992 51.666L351.144 52.4829L351.159 52.4989L351.175 52.5143L351.992 51.666ZM352.73 52.7559L351.643 53.2088L351.649 53.2215L351.654 53.2342L352.73 52.7559ZM353.012 69.3672V68.1895H349.549V69.3672V70.5448H353.012V69.3672ZM349.549 69.3672H350.726V54.1094H349.549H348.371V69.3672H349.549ZM349.549 54.1094V52.9317H339.898V54.1094V55.287H349.549V54.1094ZM339.898 54.1094H338.721V69.3672H339.898H341.076V54.1094H339.898ZM339.898 69.3672V68.1895H336.453V69.3672V70.5448H339.898V69.3672ZM336.453 69.3672H337.631V50.6465H336.453H335.275V69.3672H336.453ZM336.453 50.6465V51.8241H339.898V50.6465V49.4688H336.453V50.6465ZM339.898 50.6465H338.721V53.9512H339.898H341.076V50.6465H339.898ZM339.898 53.9512L341.075 54.0115C341.09 53.7012 341.161 53.424 341.28 53.1694L340.215 52.668L339.149 52.1665C338.894 52.7089 338.753 53.2871 338.722 53.8909L339.898 53.9512ZM340.215 52.668L341.286 53.1576C341.416 52.873 341.578 52.6458 341.769 52.4622L340.953 51.6133L340.137 50.7644C339.718 51.1667 339.389 51.6426 339.144 52.1783L340.215 52.668ZM340.953 51.6133L341.77 52.4616C341.976 52.2629 342.21 52.1115 342.48 52.0036L342.043 50.9102L341.606 49.8167C341.055 50.0369 340.563 50.3543 340.136 50.765L340.953 51.6133ZM342.043 50.9102L342.507 51.9926C342.763 51.8828 343.044 51.8241 343.361 51.8241V50.6465V49.4688C342.741 49.4688 342.143 49.586 341.579 49.8277L342.043 50.9102ZM343.361 50.6465V51.8241H349.549V50.6465V49.4688H343.361V50.6465ZM349.549 50.6465V51.8241C349.871 51.8241 350.159 51.886 350.424 52.0039L350.902 50.9277L351.381 49.8516C350.802 49.5944 350.187 49.4688 349.549 49.4688V50.6465ZM350.902 50.9277L350.449 52.0148C350.729 52.1311 350.956 52.2874 351.144 52.4829L351.992 51.666L352.84 50.8491C352.419 50.4118 351.92 50.0759 351.355 49.8407L350.902 50.9277ZM351.992 51.666L351.175 52.5143C351.371 52.7026 351.527 52.9297 351.643 53.2088L352.73 52.7559L353.818 52.3029C353.582 51.7383 353.246 51.2388 352.809 50.8177L351.992 51.666ZM352.73 52.7559L351.654 53.2342C351.772 53.4993 351.834 53.7868 351.834 54.1094H353.012H354.189C354.189 53.471 354.064 52.8562 353.807 52.2776L352.73 52.7559ZM353.012 54.1094H351.834V69.3672H353.012H354.189V54.1094H353.012ZM359.041 59.8574L357.965 59.3791L357.962 59.3863L357.959 59.3935L359.041 59.8574ZM359.779 58.75L358.947 57.9173L358.939 57.9251L358.931 57.9331L359.779 58.75ZM360.887 58.0117L361.34 59.0988L361.352 59.0935L361.365 59.0879L360.887 58.0117ZM371.152 57.7305V58.9081H372.33V57.7305H371.152ZM371.152 54.1094H372.33V52.9317H371.152V54.1094ZM359.85 54.1094H358.672V55.287H359.85V54.1094ZM359.85 50.6465V49.4688H358.672V50.6465H359.85ZM372.506 50.9277L372.028 52.0039L372.04 52.0095L372.053 52.0148L372.506 50.9277ZM373.596 51.666L372.747 52.4829L372.763 52.4989L372.779 52.5143L373.596 51.666ZM374.334 52.7559L373.247 53.2088L373.252 53.2215L373.258 53.2342L374.334 52.7559ZM374.615 69.3672V70.5448H375.793V69.3672H374.615ZM371.152 69.3672H369.975V70.5448H371.152V69.3672ZM371.152 66.2031H372.33L369.979 66.108L371.152 66.2031ZM370.027 68.4531L370.826 69.3185L370.827 69.3172L370.027 68.4531ZM360.887 69.1035L360.408 70.1797L360.421 70.1853L360.434 70.1906L360.887 69.1035ZM359.779 68.3652L358.931 69.1821L358.946 69.1981L358.962 69.2135L359.779 68.3652ZM359.041 67.2578L357.954 67.7108L357.959 67.7235L357.965 67.7361L359.041 67.2578ZM362.223 65.9043H361.045V67.082H362.223V65.9043ZM371.152 65.9043V67.082H372.33V65.9043H371.152ZM371.152 61.1934H372.33V60.0157H371.152V61.1934ZM362.223 61.1934V60.0157H361.045V61.1934H362.223ZM358.777 61.1934H359.955C359.955 60.86 360.015 60.5739 360.123 60.3213L359.041 59.8574L357.959 59.3935C357.715 59.9612 357.6 60.5658 357.6 61.1934H358.777ZM359.041 59.8574L360.117 60.3357C360.252 60.0326 360.423 59.7796 360.628 59.5669L359.779 58.75L358.931 57.9331C358.526 58.3532 358.205 58.8384 357.965 59.3791L359.041 59.8574ZM359.779 58.75L360.612 59.5827C360.817 59.3774 361.057 59.2167 361.34 59.0988L360.887 58.0117L360.434 56.9247C359.873 57.1583 359.374 57.4897 358.947 57.9173L359.779 58.75ZM360.887 58.0117L361.365 59.0879C361.634 58.9683 361.916 58.9081 362.223 58.9081V57.7305V56.5528C361.592 56.5528 360.983 56.6801 360.408 56.9356L360.887 58.0117ZM362.223 57.7305V58.9081H371.152V57.7305V56.5528H362.223V57.7305ZM371.152 57.7305H372.33V54.1094H371.152H369.975V57.7305H371.152ZM371.152 54.1094V52.9317H359.85V54.1094V55.287H371.152V54.1094ZM359.85 54.1094H361.027V50.6465H359.85H358.672V54.1094H359.85ZM359.85 50.6465V51.8241H371.152V50.6465V49.4688H359.85V50.6465ZM371.152 50.6465V51.8241C371.475 51.8241 371.762 51.886 372.028 52.0039L372.506 50.9277L372.984 49.8516C372.406 49.5944 371.791 49.4688 371.152 49.4688V50.6465ZM372.506 50.9277L372.053 52.0148C372.332 52.1311 372.559 52.2874 372.747 52.4829L373.596 51.666L374.444 50.8491C374.023 50.4118 373.523 50.0759 372.959 49.8407L372.506 50.9277ZM373.596 51.666L372.779 52.5143C372.974 52.7026 373.131 52.9297 373.247 53.2088L374.334 52.7559L375.421 52.3029C375.186 51.7383 374.85 51.2388 374.413 50.8177L373.596 51.666ZM374.334 52.7559L373.258 53.2342C373.376 53.4993 373.438 53.7868 373.438 54.1094H374.615H375.793C375.793 53.471 375.667 52.8562 375.41 52.2776L374.334 52.7559ZM374.615 54.1094H373.438V69.3672H374.615H375.793V54.1094H374.615ZM374.615 69.3672V68.1895H371.152V69.3672V70.5448H374.615V69.3672ZM371.152 69.3672H372.33V66.2031H371.152H369.975V69.3672H371.152ZM371.152 66.2031L369.979 66.108C369.956 66.3866 369.882 66.6458 369.754 66.8943L370.801 67.4336L371.848 67.9729C372.118 67.448 372.278 66.8869 372.326 66.2983L371.152 66.2031ZM370.801 67.4336L369.754 66.8943C369.617 67.1603 369.442 67.39 369.227 67.589L370.027 68.4531L370.827 69.3172C371.245 68.9304 371.586 68.4803 371.848 67.9729L370.801 67.4336ZM370.027 68.4531L369.229 67.5878C369.03 67.7706 368.799 67.9191 368.524 68.0321L368.973 69.1211L369.421 70.21C369.943 69.9949 370.415 69.6981 370.826 69.3185L370.027 68.4531ZM368.973 69.1211L368.524 68.0321C368.273 68.1357 368.004 68.1895 367.707 68.1895V69.3672V70.5448C368.301 70.5448 368.876 70.4346 369.421 70.21L368.973 69.1211ZM367.707 69.3672V68.1895H362.223V69.3672V70.5448H367.707V69.3672ZM362.223 69.3672V68.1895C361.905 68.1895 361.614 68.1309 361.34 68.0164L360.887 69.1035L360.434 70.1906C361.003 70.4277 361.603 70.5448 362.223 70.5448V69.3672ZM360.887 69.1035L361.365 68.0274C361.062 67.8927 360.809 67.7218 360.596 67.5169L359.779 68.3652L358.962 69.2135C359.383 69.6181 359.868 69.9394 360.408 70.1797L360.887 69.1035ZM359.779 68.3652L360.628 67.5484C360.423 67.3357 360.252 67.0826 360.117 66.7795L359.041 67.2578L357.965 67.7361C358.205 68.2768 358.526 68.762 358.931 69.1821L359.779 68.3652ZM359.041 67.2578L360.128 66.8049C360.015 66.5338 359.955 66.2374 359.955 65.9043H358.777H357.6C357.6 66.5321 357.715 67.1381 357.954 67.7108L359.041 67.2578ZM358.777 65.9043H359.955V61.1934H358.777H357.6V65.9043H358.777ZM362.223 65.9043V67.082H371.152V65.9043V64.7266H362.223V65.9043ZM371.152 65.9043H372.33V61.1934H371.152H369.975V65.9043H371.152ZM371.152 61.1934V60.0157H362.223V61.1934V62.371H371.152V61.1934ZM362.223 61.1934H361.045V65.9043H362.223H363.4V61.1934H362.223ZM383.844 43.4395H385.021V42.2618H383.844V43.4395ZM383.844 69.3672V70.5448H385.021V69.3672H383.844ZM380.398 69.3672H379.221V70.5448H380.398V69.3672ZM380.398 43.4395V42.2618H379.221V43.4395H380.398ZM383.844 43.4395H382.666V69.3672H383.844H385.021V43.4395H383.844ZM383.844 69.3672V68.1895H380.398V69.3672V70.5448H383.844V69.3672ZM380.398 69.3672H381.576V43.4395H380.398H379.221V69.3672H380.398ZM380.398 43.4395V44.6171H383.844V43.4395V42.2618H380.398V43.4395ZM390.875 76.9258L389.791 76.4661L389.097 78.1034H390.875V76.9258ZM394.795 67.6797L395.879 68.1394L396.076 67.6757L395.876 67.2132L394.795 67.6797ZM387.447 50.6465V49.4688H385.657L386.366 51.1129L387.447 50.6465ZM391.086 50.6465L392.17 50.1865L391.866 49.4688H391.086V50.6465ZM396.553 63.5312L395.469 63.9912L396.553 66.5464L397.637 63.9912L396.553 63.5312ZM402.02 50.6465V49.4688H401.24L400.935 50.1865L402.02 50.6465ZM405.658 50.6465L406.74 51.113L407.449 49.4688H405.658V50.6465ZM394.32 76.9258V78.1034H395.095L395.402 77.3923L394.32 76.9258ZM390.875 76.9258L391.959 77.3854L395.879 68.1394L394.795 67.6797L393.711 67.22L389.791 76.4661L390.875 76.9258ZM394.795 67.6797L395.876 67.2132L388.529 50.18L387.447 50.6465L386.366 51.1129L393.714 68.1461L394.795 67.6797ZM387.447 50.6465V51.8241H391.086V50.6465V49.4688H387.447V50.6465ZM391.086 50.6465L390.002 51.1065L395.469 63.9912L396.553 63.5312L397.637 63.0713L392.17 50.1865L391.086 50.6465ZM396.553 63.5312L397.637 63.9912L403.104 51.1065L402.02 50.6465L400.935 50.1865L395.469 63.0713L396.553 63.5312ZM402.02 50.6465V51.8241H405.658V50.6465V49.4688H402.02V50.6465ZM405.658 50.6465L404.577 50.18L393.239 76.4593L394.32 76.9258L395.402 77.3923L406.74 51.113L405.658 50.6465ZM394.32 76.9258V75.7481H390.875V76.9258V78.1034H394.32V76.9258ZM420.564 65.9043V67.082H421.742V65.9043H420.564ZM420.564 61.5625H421.742V60.3848H420.564V61.5625ZM411.002 61.2988L410.524 62.375L410.536 62.3806L410.549 62.3859L411.002 61.2988ZM409.895 60.5605L409.046 61.3774L409.062 61.3934L409.078 61.4088L409.895 60.5605ZM409.156 59.4531L408.069 59.9061L408.074 59.9188L408.08 59.9314L409.156 59.4531ZM409.156 52.7559L408.08 52.2776L408.074 52.2902L408.069 52.3029L409.156 52.7559ZM411.002 50.9277L411.455 52.0148L411.468 52.0095L411.48 52.0039L411.002 50.9277ZM423.307 50.6465H424.484V49.4688H423.307V50.6465ZM423.307 54.1094V55.287H424.484V54.1094H423.307ZM412.355 54.1094V52.9317H411.178V54.1094H412.355ZM412.355 58.0996H411.178V59.2773H412.355V58.0996ZM421.9 58.3809L421.411 59.4519L421.429 59.4602L421.447 59.4679L421.9 58.3809ZM423.008 59.1191L422.175 59.9519L422.183 59.9597L422.191 59.9674L423.008 59.1191ZM423.746 60.209L422.659 60.6619L422.664 60.6747L422.67 60.6873L423.746 60.209ZM423.746 67.2578L422.67 66.7795L422.664 66.7921L422.659 66.8049L423.746 67.2578ZM423.008 68.3652L423.825 69.2135L423.833 69.2058L423.841 69.198L423.008 68.3652ZM421.9 69.1035L422.364 70.186L422.372 70.1829L422.379 70.1797L421.9 69.1035ZM408.893 69.3672H407.715V70.5448H408.893V69.3672ZM408.893 65.9043V64.7266H407.715V65.9043H408.893ZM420.564 65.9043H421.742V61.5625H420.564H419.387V65.9043H420.564ZM420.564 61.5625V60.3848H412.355V61.5625V62.7402H420.564V61.5625ZM412.355 61.5625V60.3848C412.022 60.3848 411.726 60.3247 411.455 60.2118L411.002 61.2988L410.549 62.3859C411.122 62.6245 411.728 62.7402 412.355 62.7402V61.5625ZM411.002 61.2988L411.48 60.2227C411.177 60.088 410.924 59.9171 410.711 59.7123L409.895 60.5605L409.078 61.4088C409.498 61.8134 409.983 62.1347 410.524 62.375L411.002 61.2988ZM409.895 60.5605L410.743 59.7437C410.538 59.531 410.367 59.2779 410.232 58.9748L409.156 59.4531L408.08 59.9314C408.32 60.4721 408.642 60.9573 409.046 61.3774L409.895 60.5605ZM409.156 59.4531L410.243 59.0002C410.13 58.7291 410.07 58.4327 410.07 58.0996H408.893H407.715C407.715 58.7275 407.831 59.3334 408.069 59.9061L409.156 59.4531ZM408.893 58.0996H410.07V54.1094H408.893H407.715V58.0996H408.893ZM408.893 54.1094H410.07C410.07 53.7763 410.13 53.4799 410.243 53.2088L409.156 52.7559L408.069 52.3029C407.831 52.8756 407.715 53.4815 407.715 54.1094H408.893ZM409.156 52.7559L410.232 53.2342C410.365 52.9349 410.532 52.6941 410.727 52.4987L409.895 51.666L409.062 50.8333C408.648 51.2473 408.322 51.7331 408.08 52.2776L409.156 52.7559ZM409.895 51.666L410.727 52.4987C410.933 52.2935 411.172 52.1327 411.455 52.0148L411.002 50.9277L410.549 49.8407C409.988 50.0743 409.489 50.4058 409.062 50.8333L409.895 51.666ZM411.002 50.9277L411.48 52.0039C411.745 51.886 412.033 51.8241 412.355 51.8241V50.6465V49.4688C411.717 49.4688 411.102 49.5944 410.524 49.8516L411.002 50.9277ZM412.355 50.6465V51.8241H423.307V50.6465V49.4688H412.355V50.6465ZM423.307 50.6465H422.129V54.1094H423.307H424.484V50.6465H423.307ZM423.307 54.1094V52.9317H412.355V54.1094V55.287H423.307V54.1094ZM412.355 54.1094H411.178V58.0996H412.355H413.533V54.1094H412.355ZM412.355 58.0996V59.2773H420.564V58.0996V56.922H412.355V58.0996ZM420.564 58.0996V59.2773C420.887 59.2773 421.164 59.3392 421.411 59.4519L421.9 58.3809L422.39 57.3098C421.816 57.0475 421.203 56.922 420.564 56.922V58.0996ZM421.9 58.3809L421.447 59.4679C421.73 59.5858 421.97 59.7466 422.175 59.9519L423.008 59.1191L423.841 58.2864C423.413 57.8589 422.914 57.5274 422.353 57.2938L421.9 58.3809ZM423.008 59.1191L422.191 59.9674C422.386 60.1557 422.543 60.3828 422.659 60.6619L423.746 60.209L424.833 59.756C424.598 59.1914 424.262 58.692 423.825 58.2709L423.008 59.1191ZM423.746 60.209L422.67 60.6873C422.788 60.9524 422.85 61.2399 422.85 61.5625H424.027H425.205C425.205 60.9241 425.079 60.3093 424.822 59.7307L423.746 60.209ZM424.027 61.5625H422.85V65.9043H424.027H425.205V61.5625H424.027ZM424.027 65.9043H422.85C422.85 66.2269 422.788 66.5144 422.67 66.7795L423.746 67.2578L424.822 67.7361C425.079 67.1575 425.205 66.5427 425.205 65.9043H424.027ZM423.746 67.2578L422.659 66.8049C422.541 67.0879 422.38 67.3272 422.175 67.5325L423.008 68.3652L423.841 69.198C424.268 68.7704 424.6 68.2715 424.833 67.7108L423.746 67.2578ZM423.008 68.3652L422.191 67.5169C421.978 67.7218 421.725 67.8927 421.422 68.0274L421.9 69.1035L422.379 70.1797C422.919 69.9394 423.405 69.6181 423.825 69.2135L423.008 68.3652ZM421.9 69.1035L421.436 68.0211C421.184 68.1293 420.898 68.1895 420.564 68.1895V69.3672V70.5448C421.192 70.5448 421.797 70.4293 422.364 70.186L421.9 69.1035ZM420.564 69.3672V68.1895H408.893V69.3672V70.5448H420.564V69.3672ZM408.893 69.3672H410.07V65.9043H408.893H407.715V69.3672H408.893ZM408.893 65.9043V67.082H420.564V65.9043V64.7266H408.893V65.9043ZM433.08 50.6465H434.258V49.4688H433.08V50.6465ZM433.08 69.3672V70.5448H434.258V69.3672H433.08ZM429.617 69.3672H428.44V70.5448H429.617V69.3672ZM429.617 50.6465V49.4688H428.44V50.6465H429.617ZM429.441 43.4395V42.2618H428.264V43.4395H429.441ZM433.256 43.4395H434.434V42.2618H433.256V43.4395ZM433.256 47.043V48.2206H434.434V47.043H433.256ZM429.441 47.043H428.264V48.2206H429.441V47.043ZM433.08 50.6465H431.902V69.3672H433.08H434.258V50.6465H433.08ZM433.08 69.3672V68.1895H429.617V69.3672V70.5448H433.08V69.3672ZM429.617 69.3672H430.795V50.6465H429.617H428.44V69.3672H429.617ZM429.617 50.6465V51.8241H433.08V50.6465V49.4688H429.617V50.6465ZM429.441 43.4395V44.6171H433.256V43.4395V42.2618H429.441V43.4395ZM433.256 43.4395H432.078V47.043H433.256H434.434V43.4395H433.256ZM433.256 47.043V45.8653H429.441V47.043V48.2206H433.256V47.043ZM429.441 47.043H430.619V43.4395H429.441H428.264V47.043H429.441ZM450.342 65.9043V67.082H451.519V65.9043H450.342ZM450.342 61.5625H451.519V60.3848H450.342V61.5625ZM440.779 61.2988L440.301 62.375L440.314 62.3806L440.326 62.3859L440.779 61.2988ZM439.672 60.5605L438.824 61.3774L438.839 61.3934L438.855 61.4088L439.672 60.5605ZM438.934 59.4531L437.847 59.9061L437.852 59.9188L437.857 59.9314L438.934 59.4531ZM438.934 52.7559L437.857 52.2776L437.852 52.2902L437.847 52.3029L438.934 52.7559ZM440.779 50.9277L441.232 52.0148L441.245 52.0095L441.258 52.0039L440.779 50.9277ZM453.084 50.6465H454.262V49.4688H453.084V50.6465ZM453.084 54.1094V55.287H454.262V54.1094H453.084ZM442.133 54.1094V52.9317H440.955V54.1094H442.133ZM442.133 58.0996H440.955V59.2773H442.133V58.0996ZM451.678 58.3809L451.188 59.4519L451.206 59.4602L451.225 59.4679L451.678 58.3809ZM452.785 59.1191L451.952 59.9519L451.96 59.9597L451.968 59.9674L452.785 59.1191ZM453.523 60.209L452.436 60.6619L452.442 60.6747L452.447 60.6873L453.523 60.209ZM453.523 67.2578L452.447 66.7795L452.442 66.7921L452.436 66.8049L453.523 67.2578ZM452.785 68.3652L453.602 69.2135L453.61 69.2058L453.618 69.198L452.785 68.3652ZM451.678 69.1035L452.142 70.186L452.149 70.1829L452.156 70.1797L451.678 69.1035ZM438.67 69.3672H437.492V70.5448H438.67V69.3672ZM438.67 65.9043V64.7266H437.492V65.9043H438.67ZM450.342 65.9043H451.519V61.5625H450.342H449.164V65.9043H450.342ZM450.342 61.5625V60.3848H442.133V61.5625V62.7402H450.342V61.5625ZM442.133 61.5625V60.3848C441.8 60.3848 441.503 60.3247 441.232 60.2118L440.779 61.2988L440.326 62.3859C440.899 62.6245 441.505 62.7402 442.133 62.7402V61.5625ZM440.779 61.2988L441.258 60.2227C440.955 60.088 440.701 59.9171 440.489 59.7123L439.672 60.5605L438.855 61.4088C439.275 61.8134 439.76 62.1347 440.301 62.375L440.779 61.2988ZM439.672 60.5605L440.52 59.7437C440.315 59.531 440.144 59.2779 440.01 58.9748L438.934 59.4531L437.857 59.9314C438.098 60.4721 438.419 60.9573 438.824 61.3774L439.672 60.5605ZM438.934 59.4531L440.021 59.0002C439.908 58.7291 439.848 58.4327 439.848 58.0996H438.67H437.492C437.492 58.7275 437.608 59.3334 437.847 59.9061L438.934 59.4531ZM438.67 58.0996H439.848V54.1094H438.67H437.492V58.0996H438.67ZM438.67 54.1094H439.848C439.848 53.7763 439.908 53.4799 440.021 53.2088L438.934 52.7559L437.847 52.3029C437.608 52.8756 437.492 53.4815 437.492 54.1094H438.67ZM438.934 52.7559L440.01 53.2342C440.143 52.9349 440.309 52.6941 440.505 52.4987L439.672 51.666L438.839 50.8333C438.425 51.2473 438.099 51.7331 437.857 52.2776L438.934 52.7559ZM439.672 51.666L440.505 52.4987C440.71 52.2935 440.949 52.1327 441.232 52.0148L440.779 50.9277L440.326 49.8407C439.766 50.0743 439.267 50.4058 438.839 50.8333L439.672 51.666ZM440.779 50.9277L441.258 52.0039C441.523 51.886 441.81 51.8241 442.133 51.8241V50.6465V49.4688C441.494 49.4688 440.88 49.5944 440.301 49.8516L440.779 50.9277ZM442.133 50.6465V51.8241H453.084V50.6465V49.4688H442.133V50.6465ZM453.084 50.6465H451.906V54.1094H453.084H454.262V50.6465H453.084ZM453.084 54.1094V52.9317H442.133V54.1094V55.287H453.084V54.1094ZM442.133 54.1094H440.955V58.0996H442.133H443.31V54.1094H442.133ZM442.133 58.0996V59.2773H450.342V58.0996V56.922H442.133V58.0996ZM450.342 58.0996V59.2773C450.665 59.2773 450.942 59.3392 451.188 59.4519L451.678 58.3809L452.167 57.3098C451.594 57.0475 450.98 56.922 450.342 56.922V58.0996ZM451.678 58.3809L451.225 59.4679C451.508 59.5858 451.747 59.7466 451.952 59.9519L452.785 59.1191L453.618 58.2864C453.19 57.8589 452.691 57.5274 452.131 57.2938L451.678 58.3809ZM452.785 59.1191L451.968 59.9674C452.164 60.1557 452.32 60.3828 452.436 60.6619L453.523 60.209L454.611 59.756C454.375 59.1914 454.039 58.692 453.602 58.2709L452.785 59.1191ZM453.523 60.209L452.447 60.6873C452.565 60.9524 452.627 61.2399 452.627 61.5625H453.805H454.982C454.982 60.9241 454.857 60.3093 454.6 59.7307L453.523 60.209ZM453.805 61.5625H452.627V65.9043H453.805H454.982V61.5625H453.805ZM453.805 65.9043H452.627C452.627 66.2269 452.565 66.5144 452.447 66.7795L453.523 67.2578L454.6 67.7361C454.857 67.1575 454.982 66.5427 454.982 65.9043H453.805ZM453.523 67.2578L452.436 66.8049C452.318 67.0879 452.158 67.3272 451.952 67.5325L452.785 68.3652L453.618 69.198C454.045 68.7704 454.377 68.2715 454.611 67.7108L453.523 67.2578ZM452.785 68.3652L451.968 67.5169C451.756 67.7218 451.503 67.8927 451.199 68.0274L451.678 69.1035L452.156 70.1797C452.697 69.9394 453.182 69.6181 453.602 69.2135L452.785 68.3652ZM451.678 69.1035L451.214 68.0211C450.961 68.1293 450.675 68.1895 450.342 68.1895V69.3672V70.5448C450.969 70.5448 451.574 70.4293 452.142 70.186L451.678 69.1035ZM450.342 69.3672V68.1895H438.67V69.3672V70.5448H450.342V69.3672ZM438.67 69.3672H439.848V65.9043H438.67H437.492V69.3672H438.67ZM438.67 65.9043V67.082H450.342V65.9043V64.7266H438.67V65.9043ZM470.363 69.3672H469.186V70.5448H470.363V69.3672ZM470.363 44.1602V42.9825H469.186V44.1602H470.363ZM473.967 60.0156V58.838H472.789V60.0156H473.967ZM473.967 69.3672V70.5448H475.144V69.3672H473.967ZM473.967 56.4121H472.789V57.5898H473.967V56.4121ZM473.967 47.7637V46.586H472.789V47.7637H473.967ZM470.363 69.3672H471.541V44.1602H470.363H469.186V69.3672H470.363ZM470.363 44.1602V45.3378H484.162V44.1602V42.9825H470.363V44.1602ZM484.162 44.1602V45.3378C486.019 45.3378 487.195 45.8024 487.916 46.5254C488.638 47.249 489.102 48.4307 489.102 50.2949H490.279H491.457C491.457 48.0693 490.901 46.1836 489.584 44.8623C488.266 43.5404 486.384 42.9825 484.162 42.9825V44.1602ZM490.279 50.2949H489.102V53.8809H490.279H491.457V50.2949H490.279ZM490.279 53.8809H489.102C489.102 55.7451 488.638 56.9268 487.916 57.6504C487.195 58.3734 486.019 58.838 484.162 58.838V60.0156V61.1933C486.384 61.1933 488.266 60.6354 489.584 59.3135C490.901 57.9921 491.457 56.1065 491.457 53.8809H490.279ZM484.162 60.0156V58.838H473.967V60.0156V61.1933H484.162V60.0156ZM473.967 60.0156H472.789V69.3672H473.967H475.144V60.0156H473.967ZM473.967 69.3672V68.1895H470.363V69.3672V70.5448H473.967V69.3672ZM473.967 56.4121V57.5898H483.969V56.4121V55.2345H473.967V56.4121ZM483.969 56.4121V57.5898C485.059 57.5898 486.131 57.3571 486.876 56.612L486.043 55.7793L485.21 54.9466C485.112 55.0452 484.8 55.2345 483.969 55.2345V56.4121ZM486.043 55.7793L486.876 56.612C487.621 55.8669 487.853 54.7953 487.853 53.7051H486.676H485.498C485.498 54.5367 485.309 54.8479 485.21 54.9466L486.043 55.7793ZM486.676 53.7051H487.853V50.4707H486.676H485.498V53.7051H486.676ZM486.676 50.4707H487.853C487.853 49.3805 487.621 48.3089 486.876 47.5638L486.043 48.3965L485.21 49.2292C485.309 49.3279 485.498 49.6391 485.498 50.4707H486.676ZM486.043 48.3965L486.876 47.5638C486.131 46.8187 485.059 46.586 483.969 46.586V47.7637V48.9413C484.8 48.9413 485.112 49.1306 485.21 49.2292L486.043 48.3965ZM483.969 47.7637V46.586H473.967V47.7637V48.9413H483.969V47.7637ZM473.967 47.7637H472.789V56.4121H473.967H475.144V47.7637H473.967ZM498.418 43.4395H499.596V42.2618H498.418V43.4395ZM498.418 69.3672V70.5448H499.596V69.3672H498.418ZM494.973 69.3672H493.795V70.5448H494.973V69.3672ZM494.973 43.4395V42.2618H493.795V43.4395H494.973ZM498.418 43.4395H497.24V69.3672H498.418H499.596V43.4395H498.418ZM498.418 69.3672V68.1895H494.973V69.3672V70.5448H498.418V69.3672ZM494.973 69.3672H496.15V43.4395H494.973H493.795V69.3672H494.973ZM494.973 43.4395V44.6171H498.418V43.4395V42.2618H494.973V43.4395ZM504.447 59.8574L503.371 59.3791L503.368 59.3863L503.365 59.3935L504.447 59.8574ZM505.186 58.75L504.353 57.9173L504.345 57.9251L504.337 57.9331L505.186 58.75ZM506.293 58.0117L506.746 59.0988L506.759 59.0935L506.771 59.0879L506.293 58.0117ZM516.559 57.7305V58.9081H517.736V57.7305H516.559ZM516.559 54.1094H517.736V52.9317H516.559V54.1094ZM505.256 54.1094H504.078V55.287H505.256V54.1094ZM505.256 50.6465V49.4688H504.078V50.6465H505.256ZM517.912 50.9277L517.434 52.0039L517.446 52.0095L517.459 52.0148L517.912 50.9277ZM519.002 51.666L518.154 52.4829L518.169 52.4989L518.185 52.5143L519.002 51.666ZM519.74 52.7559L518.653 53.2088L518.658 53.2215L518.664 53.2342L519.74 52.7559ZM520.021 69.3672V70.5448H521.199V69.3672H520.021ZM516.559 69.3672H515.381V70.5448H516.559V69.3672ZM516.559 66.2031H517.736L515.385 66.108L516.559 66.2031ZM515.434 68.4531L516.232 69.3185L516.234 69.3172L515.434 68.4531ZM506.293 69.1035L505.815 70.1797L505.827 70.1853L505.84 70.1906L506.293 69.1035ZM505.186 68.3652L504.337 69.1821L504.353 69.1981L504.369 69.2135L505.186 68.3652ZM504.447 67.2578L503.36 67.7108L503.366 67.7235L503.371 67.7361L504.447 67.2578ZM507.629 65.9043H506.451V67.082H507.629V65.9043ZM516.559 65.9043V67.082H517.736V65.9043H516.559ZM516.559 61.1934H517.736V60.0157H516.559V61.1934ZM507.629 61.1934V60.0157H506.451V61.1934H507.629ZM504.184 61.1934H505.361C505.361 60.86 505.421 60.5739 505.53 60.3213L504.447 59.8574L503.365 59.3935C503.122 59.9612 503.006 60.5658 503.006 61.1934H504.184ZM504.447 59.8574L505.523 60.3357C505.658 60.0326 505.829 59.7796 506.034 59.5669L505.186 58.75L504.337 57.9331C503.933 58.3532 503.611 58.8384 503.371 59.3791L504.447 59.8574ZM505.186 58.75L506.018 59.5827C506.224 59.3774 506.463 59.2167 506.746 59.0988L506.293 58.0117L505.84 56.9247C505.279 57.1583 504.78 57.4897 504.353 57.9173L505.186 58.75ZM506.293 58.0117L506.771 59.0879C507.04 58.9683 507.322 58.9081 507.629 58.9081V57.7305V56.5528C506.998 56.5528 506.389 56.6801 505.815 56.9356L506.293 58.0117ZM507.629 57.7305V58.9081H516.559V57.7305V56.5528H507.629V57.7305ZM516.559 57.7305H517.736V54.1094H516.559H515.381V57.7305H516.559ZM516.559 54.1094V52.9317H505.256V54.1094V55.287H516.559V54.1094ZM505.256 54.1094H506.434V50.6465H505.256H504.078V54.1094H505.256ZM505.256 50.6465V51.8241H516.559V50.6465V49.4688H505.256V50.6465ZM516.559 50.6465V51.8241C516.881 51.8241 517.169 51.886 517.434 52.0039L517.912 50.9277L518.39 49.8516C517.812 49.5944 517.197 49.4688 516.559 49.4688V50.6465ZM517.912 50.9277L517.459 52.0148C517.738 52.1311 517.965 52.2874 518.154 52.4829L519.002 51.666L519.85 50.8491C519.429 50.4118 518.93 50.0759 518.365 49.8407L517.912 50.9277ZM519.002 51.666L518.185 52.5143C518.381 52.7026 518.537 52.9297 518.653 53.2088L519.74 52.7559L520.827 52.3029C520.592 51.7383 520.256 51.2388 519.819 50.8177L519.002 51.666ZM519.74 52.7559L518.664 53.2342C518.782 53.4993 518.844 53.7868 518.844 54.1094H520.021H521.199C521.199 53.471 521.074 52.8562 520.816 52.2776L519.74 52.7559ZM520.021 54.1094H518.844V69.3672H520.021H521.199V54.1094H520.021ZM520.021 69.3672V68.1895H516.559V69.3672V70.5448H520.021V69.3672ZM516.559 69.3672H517.736V66.2031H516.559H515.381V69.3672H516.559ZM516.559 66.2031L515.385 66.108C515.362 66.3866 515.288 66.6458 515.16 66.8943L516.207 67.4336L517.254 67.9729C517.524 67.448 517.685 66.8869 517.732 66.2983L516.559 66.2031ZM516.207 67.4336L515.16 66.8943C515.023 67.1603 514.848 67.39 514.633 67.589L515.434 68.4531L516.234 69.3172C516.652 68.9304 516.993 68.4803 517.254 67.9729L516.207 67.4336ZM515.434 68.4531L514.635 67.5878C514.437 67.7706 514.205 67.9191 513.931 68.0321L514.379 69.1211L514.827 70.21C515.35 69.9949 515.821 69.6981 516.232 69.3185L515.434 68.4531ZM514.379 69.1211L513.931 68.0321C513.679 68.1357 513.41 68.1895 513.113 68.1895V69.3672V70.5448C513.707 70.5448 514.282 70.4346 514.827 70.21L514.379 69.1211ZM513.113 69.3672V68.1895H507.629V69.3672V70.5448H513.113V69.3672ZM507.629 69.3672V68.1895C507.312 68.1895 507.021 68.1309 506.746 68.0164L506.293 69.1035L505.84 70.1906C506.409 70.4277 507.009 70.5448 507.629 70.5448V69.3672ZM506.293 69.1035L506.771 68.0274C506.468 67.8927 506.215 67.7218 506.002 67.5169L505.186 68.3652L504.369 69.2135C504.789 69.6181 505.274 69.9394 505.815 70.1797L506.293 69.1035ZM505.186 68.3652L506.034 67.5484C505.829 67.3357 505.658 67.0826 505.523 66.7795L504.447 67.2578L503.371 67.7361C503.611 68.2768 503.933 68.762 504.337 69.1821L505.186 68.3652ZM504.447 67.2578L505.534 66.8049C505.421 66.5338 505.361 66.2374 505.361 65.9043H504.184H503.006C503.006 66.5321 503.122 67.1381 503.36 67.7108L504.447 67.2578ZM504.184 65.9043H505.361V61.1934H504.184H503.006V65.9043H504.184ZM507.629 65.9043V67.082H516.559V65.9043V64.7266H507.629V65.9043ZM516.559 65.9043H517.736V61.1934H516.559H515.381V65.9043H516.559ZM516.559 61.1934V60.0157H507.629V61.1934V62.371H516.559V61.1934ZM507.629 61.1934H506.451V65.9043H507.629H508.807V61.1934H507.629ZM524.715 50.6465V49.4688H523.537V50.6465H524.715ZM529.285 50.6465V51.8241H530.463V50.6465H529.285ZM529.285 44.8809V43.7032H528.108V44.8809H529.285ZM532.748 44.8809H533.926V43.7032H532.748V44.8809ZM532.748 50.6465H531.57V51.8241H532.748V50.6465ZM538.9 50.6465H540.078V49.4688H538.9V50.6465ZM538.9 54.1094V55.287H540.078V54.1094H538.9ZM532.748 54.1094V52.9317H531.57V54.1094H532.748ZM532.748 65.9043H531.57V67.082H532.748V65.9043ZM538.9 65.9043H540.078V64.7266H538.9V65.9043ZM538.9 69.3672V70.5448H540.078V69.3672H538.9ZM531.412 69.1035L530.934 70.1797L530.946 70.1853L530.959 70.1906L531.412 69.1035ZM530.305 68.3652L529.472 69.198L529.48 69.2058L529.488 69.2135L530.305 68.3652ZM529.549 67.2578L528.462 67.7108L528.467 67.7235L528.473 67.7361L529.549 67.2578ZM529.285 54.1094H530.463V52.9317H529.285V54.1094ZM524.715 54.1094H523.537V55.287H524.715V54.1094ZM524.715 50.6465V51.8241H529.285V50.6465V49.4688H524.715V50.6465ZM529.285 50.6465H530.463V44.8809H529.285H528.108V50.6465H529.285ZM529.285 44.8809V46.0585H532.748V44.8809V43.7032H529.285V44.8809ZM532.748 44.8809H531.57V50.6465H532.748H533.926V44.8809H532.748ZM532.748 50.6465V51.8241H538.9V50.6465V49.4688H532.748V50.6465ZM538.9 50.6465H537.723V54.1094H538.9H540.078V50.6465H538.9ZM538.9 54.1094V52.9317H532.748V54.1094V55.287H538.9V54.1094ZM532.748 54.1094H531.57V65.9043H532.748H533.926V54.1094H532.748ZM532.748 65.9043V67.082H538.9V65.9043V64.7266H532.748V65.9043ZM538.9 65.9043H537.723V69.3672H538.9H540.078V65.9043H538.9ZM538.9 69.3672V68.1895H532.748V69.3672V70.5448H538.9V69.3672ZM532.748 69.3672V68.1895C532.431 68.1895 532.14 68.1309 531.865 68.0164L531.412 69.1035L530.959 70.1906C531.528 70.4277 532.128 70.5448 532.748 70.5448V69.3672ZM531.412 69.1035L531.89 68.0274C531.587 67.8927 531.334 67.7218 531.122 67.5169L530.305 68.3652L529.488 69.2135C529.908 69.6181 530.393 69.9394 530.934 70.1797L531.412 69.1035ZM530.305 68.3652L531.137 67.5325C530.926 67.3216 530.756 67.0736 530.625 66.7795L529.549 67.2578L528.473 67.7361C528.717 68.2858 529.05 68.7761 529.472 69.198L530.305 68.3652ZM529.549 67.2578L530.636 66.8049C530.523 66.5338 530.463 66.2374 530.463 65.9043H529.285H528.108C528.108 66.5321 528.223 67.1381 528.462 67.7108L529.549 67.2578ZM529.285 65.9043H530.463V54.1094H529.285H528.108V65.9043H529.285ZM529.285 54.1094V52.9317H524.715V54.1094V55.287H529.285V54.1094ZM524.715 54.1094H525.892V50.6465H524.715H523.537V54.1094H524.715ZM551.627 46.9023V45.7247H550.449V46.9023H551.627ZM551.627 50.6465H550.449V51.8241H551.627V50.6465ZM557.779 50.6465H558.957V49.4688H557.779V50.6465ZM557.779 54.1094V55.287H558.957V54.1094H557.779ZM551.627 54.1094V52.9317H550.449V54.1094H551.627ZM551.627 69.3672V70.5448H552.805V69.3672H551.627ZM548.164 69.3672H546.986V70.5448H548.164V69.3672ZM548.164 54.1094H549.342V52.9317H548.164V54.1094ZM543.594 54.1094H542.416V55.287H543.594V54.1094ZM543.594 50.6465V49.4688H542.416V50.6465H543.594ZM548.164 50.6465V51.8241H549.342V50.6465H548.164ZM548.428 45.5664L547.352 45.0881L547.348 45.0953L547.345 45.1025L548.428 45.5664ZM550.291 43.7207L550.744 44.8078L550.757 44.8025L550.769 44.7969L550.291 43.7207ZM557.779 43.4395H558.957V42.2618H557.779V43.4395ZM557.779 46.9023V48.08H558.957V46.9023H557.779ZM551.627 46.9023H550.449V50.6465H551.627H552.805V46.9023H551.627ZM551.627 50.6465V51.8241H557.779V50.6465V49.4688H551.627V50.6465ZM557.779 50.6465H556.602V54.1094H557.779H558.957V50.6465H557.779ZM557.779 54.1094V52.9317H551.627V54.1094V55.287H557.779V54.1094ZM551.627 54.1094H550.449V69.3672H551.627H552.805V54.1094H551.627ZM551.627 69.3672V68.1895H548.164V69.3672V70.5448H551.627V69.3672ZM548.164 69.3672H549.342V54.1094H548.164H546.986V69.3672H548.164ZM548.164 54.1094V52.9317H543.594V54.1094V55.287H548.164V54.1094ZM543.594 54.1094H544.771V50.6465H543.594H542.416V54.1094H543.594ZM543.594 50.6465V51.8241H548.164V50.6465V49.4688H543.594V50.6465ZM548.164 50.6465H549.342V46.9023H548.164H546.986V50.6465H548.164ZM548.164 46.9023H549.342C549.342 46.569 549.402 46.2829 549.51 46.0303L548.428 45.5664L547.345 45.1025C547.102 45.6702 546.986 46.2748 546.986 46.9023H548.164ZM548.428 45.5664L549.504 46.0447C549.635 45.7506 549.805 45.5027 550.016 45.2917L549.184 44.459L548.351 43.6263C547.929 44.0481 547.596 44.5384 547.352 45.0881L548.428 45.5664ZM549.184 44.459L550.016 45.2917C550.222 45.0864 550.461 44.9257 550.744 44.8078L550.291 43.7207L549.838 42.6336C549.277 42.8673 548.778 43.1987 548.351 43.6263L549.184 44.459ZM550.291 43.7207L550.769 44.7969C551.038 44.6773 551.32 44.6171 551.627 44.6171V43.4395V42.2618C550.996 42.2618 550.388 42.3891 549.813 42.6445L550.291 43.7207ZM551.627 43.4395V44.6171H557.779V43.4395V42.2618H551.627V43.4395ZM557.779 43.4395H556.602V46.9023H557.779H558.957V43.4395H557.779ZM557.779 46.9023V45.7247H551.627V46.9023V48.08H557.779V46.9023ZM578.381 67.2578L577.305 66.7795L577.299 66.7921L577.294 66.8049L578.381 67.2578ZM576.553 69.1035L577.017 70.186L577.024 70.1829L577.031 70.1797L576.553 69.1035ZM564.582 69.1035L564.104 70.1797L564.116 70.1853L564.129 70.1906L564.582 69.1035ZM563.475 68.3652L562.626 69.1821L562.642 69.1981L562.658 69.2135L563.475 68.3652ZM562.736 67.2578L561.649 67.7108L561.655 67.7235L561.66 67.7361L562.736 67.2578ZM562.736 52.7559L561.66 52.2776L561.655 52.2902L561.649 52.3029L562.736 52.7559ZM564.582 50.9277L565.035 52.0148L565.048 52.0095L565.06 52.0039L564.582 50.9277ZM576.553 50.9277L576.063 51.9988L576.081 52.0071L576.1 52.0148L576.553 50.9277ZM577.643 51.666L576.794 52.4829L576.81 52.4989L576.826 52.5143L577.643 51.666ZM578.381 52.7559L577.294 53.2088L577.299 53.2215L577.305 53.2342L578.381 52.7559ZM565.918 54.1094V52.9317H564.74V54.1094H565.918ZM565.918 65.9043H564.74V67.082H565.918V65.9043ZM575.217 65.9043V67.082H576.394V65.9043H575.217ZM575.217 54.1094H576.394V52.9317H575.217V54.1094ZM578.662 65.9043H577.484C577.484 66.2269 577.423 66.5144 577.305 66.7795L578.381 67.2578L579.457 67.7361C579.714 67.1575 579.84 66.5427 579.84 65.9043H578.662ZM578.381 67.2578L577.294 66.8049C577.176 67.0879 577.015 67.3272 576.81 67.5325L577.643 68.3652L578.475 69.198C578.903 68.7704 579.234 68.2715 579.468 67.7108L578.381 67.2578ZM577.643 68.3652L576.81 67.5325C576.614 67.7279 576.374 67.8943 576.074 68.0274L576.553 69.1035L577.031 70.1797C577.575 69.9377 578.061 69.612 578.475 69.198L577.643 68.3652ZM576.553 69.1035L576.089 68.0211C575.836 68.1293 575.55 68.1895 575.217 68.1895V69.3672V70.5448C575.844 70.5448 576.449 70.4293 577.017 70.186L576.553 69.1035ZM575.217 69.3672V68.1895H565.918V69.3672V70.5448H575.217V69.3672ZM565.918 69.3672V68.1895C565.601 68.1895 565.31 68.1309 565.035 68.0164L564.582 69.1035L564.129 70.1906C564.698 70.4277 565.298 70.5448 565.918 70.5448V69.3672ZM564.582 69.1035L565.06 68.0274C564.757 67.8927 564.504 67.7218 564.291 67.5169L563.475 68.3652L562.658 69.2135C563.078 69.6181 563.563 69.9394 564.104 70.1797L564.582 69.1035ZM563.475 68.3652L564.323 67.5484C564.118 67.3357 563.947 67.0826 563.812 66.7795L562.736 67.2578L561.66 67.7361C561.9 68.2768 562.222 68.762 562.626 69.1821L563.475 68.3652ZM562.736 67.2578L563.823 66.8049C563.71 66.5338 563.65 66.2374 563.65 65.9043H562.473H561.295C561.295 66.5321 561.411 67.1381 561.649 67.7108L562.736 67.2578ZM562.473 65.9043H563.65V54.1094H562.473H561.295V65.9043H562.473ZM562.473 54.1094H563.65C563.65 53.7763 563.71 53.4799 563.823 53.2088L562.736 52.7559L561.649 52.3029C561.411 52.8756 561.295 53.4815 561.295 54.1094H562.473ZM562.736 52.7559L563.812 53.2342C563.946 52.9349 564.112 52.6941 564.307 52.4987L563.475 51.666L562.642 50.8333C562.228 51.2473 561.902 51.7331 561.66 52.2776L562.736 52.7559ZM563.475 51.666L564.307 52.4987C564.513 52.2935 564.752 52.1327 565.035 52.0148L564.582 50.9277L564.129 49.8407C563.568 50.0743 563.069 50.4058 562.642 50.8333L563.475 51.666ZM564.582 50.9277L565.06 52.0039C565.329 51.8844 565.611 51.8241 565.918 51.8241V50.6465V49.4688C565.287 49.4688 564.679 49.5961 564.104 49.8516L564.582 50.9277ZM565.918 50.6465V51.8241H575.217V50.6465V49.4688H565.918V50.6465ZM575.217 50.6465V51.8241C575.54 51.8241 575.817 51.8861 576.063 51.9988L576.553 50.9277L577.042 49.8567C576.469 49.5944 575.855 49.4688 575.217 49.4688V50.6465ZM576.553 50.9277L576.1 52.0148C576.379 52.1311 576.606 52.2874 576.794 52.4829L577.643 51.666L578.491 50.8491C578.07 50.4118 577.57 50.0759 577.006 49.8407L576.553 50.9277ZM577.643 51.666L576.826 52.5143C577.021 52.7026 577.177 52.9297 577.294 53.2088L578.381 52.7559L579.468 52.3029C579.233 51.7383 578.897 51.2388 578.459 50.8177L577.643 51.666ZM578.381 52.7559L577.305 53.2342C577.423 53.4993 577.484 53.7868 577.484 54.1094H578.662H579.84C579.84 53.471 579.714 52.8562 579.457 52.2776L578.381 52.7559ZM578.662 54.1094H577.484V65.9043H578.662H579.84V54.1094H578.662ZM565.918 54.1094H564.74V65.9043H565.918H567.096V54.1094H565.918ZM565.918 65.9043V67.082H575.217V65.9043V64.7266H565.918V65.9043ZM575.217 65.9043H576.394V54.1094H575.217H574.039V65.9043H575.217ZM575.217 54.1094V52.9317H565.918V54.1094V55.287H575.217V54.1094ZM587.891 54.1094V52.9317H586.713V54.1094H587.891ZM587.891 69.3672V70.5448H589.068V69.3672H587.891ZM584.445 69.3672H583.268V70.5448H584.445V69.3672ZM584.445 50.6465V49.4688H583.268V50.6465H584.445ZM587.891 50.6465H589.068V49.4688H587.891V50.6465ZM587.891 53.9512H586.713L589.067 54.0115L587.891 53.9512ZM588.207 52.668L589.273 53.1694L589.278 53.1576L588.207 52.668ZM588.945 51.6133L589.762 52.4622L589.762 52.4616L588.945 51.6133ZM590.035 50.9102L590.473 52.0036L590.486 51.9982L590.499 51.9926L590.035 50.9102ZM596.363 50.9277L595.874 51.9988L595.892 52.0071L595.91 52.0148L596.363 50.9277ZM597.471 51.666L596.638 52.4987L596.646 52.5066L596.654 52.5143L597.471 51.666ZM598.209 52.7559L597.122 53.2088L597.127 53.2215L597.133 53.2342L598.209 52.7559ZM598.49 57.2734V58.4511H599.668V57.2734H598.49ZM595.027 57.2734H593.85V58.4511H595.027V57.2734ZM595.027 54.1094H596.205V52.9317H595.027V54.1094ZM587.891 54.1094H586.713V69.3672H587.891H589.068V54.1094H587.891ZM587.891 69.3672V68.1895H584.445V69.3672V70.5448H587.891V69.3672ZM584.445 69.3672H585.623V50.6465H584.445H583.268V69.3672H584.445ZM584.445 50.6465V51.8241H587.891V50.6465V49.4688H584.445V50.6465ZM587.891 50.6465H586.713V53.9512H587.891H589.068V50.6465H587.891ZM587.891 53.9512L589.067 54.0115C589.083 53.7012 589.153 53.424 589.273 53.1694L588.207 52.668L587.141 52.1665C586.886 52.7089 586.745 53.2871 586.715 53.8909L587.891 53.9512ZM588.207 52.668L589.278 53.1576C589.408 52.873 589.571 52.6458 589.762 52.4622L588.945 51.6133L588.129 50.7644C587.711 51.1667 587.381 51.6426 587.136 52.1783L588.207 52.668ZM588.945 51.6133L589.762 52.4616C589.968 52.2629 590.203 52.1115 590.473 52.0036L590.035 50.9102L589.598 49.8167C589.047 50.0369 588.555 50.3543 588.128 50.765L588.945 51.6133ZM590.035 50.9102L590.499 51.9926C590.755 51.8828 591.036 51.8241 591.354 51.8241V50.6465V49.4688C590.733 49.4688 590.135 49.586 589.571 49.8277L590.035 50.9102ZM591.354 50.6465V51.8241H595.027V50.6465V49.4688H591.354V50.6465ZM595.027 50.6465V51.8241C595.35 51.8241 595.627 51.8861 595.874 51.9988L596.363 50.9277L596.853 49.8567C596.279 49.5944 595.666 49.4688 595.027 49.4688V50.6465ZM596.363 50.9277L595.91 52.0148C596.193 52.1327 596.433 52.2935 596.638 52.4987L597.471 51.666L598.303 50.8333C597.876 50.4058 597.377 50.0743 596.816 49.8407L596.363 50.9277ZM597.471 51.666L596.654 52.5143C596.849 52.7026 597.006 52.9297 597.122 53.2088L598.209 52.7559L599.296 52.3029C599.061 51.7383 598.725 51.2388 598.288 50.8177L597.471 51.666ZM598.209 52.7559L597.133 53.2342C597.251 53.4993 597.313 53.7868 597.313 54.1094H598.49H599.668C599.668 53.471 599.542 52.8562 599.285 52.2776L598.209 52.7559ZM598.49 54.1094H597.313V57.2734H598.49H599.668V54.1094H598.49ZM598.49 57.2734V56.0958H595.027V57.2734V58.4511H598.49V57.2734ZM595.027 57.2734H596.205V54.1094H595.027H593.85V57.2734H595.027ZM595.027 54.1094V52.9317H587.891V54.1094V55.287H595.027V54.1094ZM617.633 54.1094V52.9317H616.455V54.1094H617.633ZM617.633 69.3672V70.5448H618.81V69.3672H617.633ZM614.17 69.3672H612.992V70.5448H614.17V69.3672ZM614.17 54.1094H615.348V52.9317H614.17V54.1094ZM606.242 54.1094V52.9317H605.065V54.1094H606.242ZM606.242 69.3672V70.5448H607.42V69.3672H606.242ZM602.797 69.3672H601.619V70.5448H602.797V69.3672ZM602.797 50.6465V49.4688H601.619V50.6465H602.797ZM606.242 50.6465H607.42V49.4688H606.242V50.6465ZM606.242 53.9512H605.065L607.418 54.0115L606.242 53.9512ZM606.559 52.668L607.624 53.1694L607.63 53.1576L606.559 52.668ZM607.297 51.6133L608.113 52.4622L608.114 52.4616L607.297 51.6133ZM608.387 50.9102L608.824 52.0036L608.837 51.9982L608.851 51.9926L608.387 50.9102ZM615.471 50.9102L615.007 51.9926L615.02 51.9982L615.033 52.0036L615.471 50.9102ZM616.561 51.6133L615.744 52.4616L615.752 52.4696L615.76 52.4774L616.561 51.6133ZM617.316 52.668L616.245 53.1576L616.254 53.1763L616.263 53.1946L617.316 52.668ZM617.633 53.9512L616.456 53.9814L618.809 54.0115L617.633 53.9512ZM617.932 52.668L616.861 52.1783L616.857 52.1855L616.854 52.1926L617.932 52.668ZM618.67 51.6133L619.486 52.4622L619.487 52.4616L618.67 51.6133ZM619.76 50.9102L620.197 52.0036L620.21 51.9982L620.224 51.9926L619.76 50.9102ZM626.896 50.9277L626.418 52.0039L626.431 52.0095L626.444 52.0148L626.896 50.9277ZM627.986 51.666L627.138 52.4829L627.153 52.4989L627.169 52.5143L627.986 51.666ZM628.725 52.7559L627.638 53.2088L627.643 53.2215L627.648 53.2342L628.725 52.7559ZM629.006 69.3672V70.5448H630.184V69.3672H629.006ZM625.543 69.3672H624.365V70.5448H625.543V69.3672ZM625.543 54.1094H626.721V52.9317H625.543V54.1094ZM617.633 54.1094H616.455V69.3672H617.633H618.81V54.1094H617.633ZM617.633 69.3672V68.1895H614.17V69.3672V70.5448H617.633V69.3672ZM614.17 69.3672H615.348V54.1094H614.17H612.992V69.3672H614.17ZM614.17 54.1094V52.9317H606.242V54.1094V55.287H614.17V54.1094ZM606.242 54.1094H605.065V69.3672H606.242H607.42V54.1094H606.242ZM606.242 69.3672V68.1895H602.797V69.3672V70.5448H606.242V69.3672ZM602.797 69.3672H603.975V50.6465H602.797H601.619V69.3672H602.797ZM602.797 50.6465V51.8241H606.242V50.6465V49.4688H602.797V50.6465ZM606.242 50.6465H605.065V53.9512H606.242H607.42V50.6465H606.242ZM606.242 53.9512L607.418 54.0115C607.434 53.7012 607.504 53.424 607.624 53.1694L606.559 52.668L605.493 52.1665C605.238 52.7089 605.097 53.2871 605.066 53.8909L606.242 53.9512ZM606.559 52.668L607.63 53.1576C607.76 52.873 607.922 52.6458 608.113 52.4622L607.297 51.6133L606.481 50.7644C606.062 51.1667 605.732 51.6426 605.488 52.1783L606.559 52.668ZM607.297 51.6133L608.114 52.4616C608.32 52.2629 608.554 52.1115 608.824 52.0036L608.387 50.9102L607.949 49.8167C607.399 50.0369 606.907 50.3543 606.48 50.765L607.297 51.6133ZM608.387 50.9102L608.851 51.9926C609.107 51.8828 609.388 51.8241 609.705 51.8241V50.6465V49.4688C609.085 49.4688 608.487 49.586 607.923 49.8277L608.387 50.9102ZM609.705 50.6465V51.8241H614.17V50.6465V49.4688H609.705V50.6465ZM614.17 50.6465V51.8241C614.471 51.8241 614.747 51.8812 615.007 51.9926L615.471 50.9102L615.935 49.8277C615.374 49.5876 614.782 49.4688 614.17 49.4688V50.6465ZM615.471 50.9102L615.033 52.0036C615.303 52.1115 615.537 52.2629 615.744 52.4616L616.561 51.6133L617.377 50.765C616.951 50.3543 616.459 50.0369 615.908 49.8167L615.471 50.9102ZM616.561 51.6133L615.76 52.4774C615.957 52.6598 616.12 52.8823 616.245 53.1576L617.316 52.668L618.387 52.1783C618.138 51.6333 617.796 51.1527 617.361 50.7492L616.561 51.6133ZM617.316 52.668L616.263 53.1946C616.383 53.4345 616.448 53.6922 616.456 53.9814L617.633 53.9512L618.81 53.921C618.794 53.2961 618.648 52.6983 618.37 52.1413L617.316 52.668ZM617.633 53.9512L618.809 54.0115C618.825 53.6903 618.894 53.404 619.009 53.1433L617.932 52.668L616.854 52.1926C616.618 52.7288 616.487 53.298 616.457 53.8909L617.633 53.9512ZM617.932 52.668L619.003 53.1576C619.133 52.873 619.295 52.6458 619.486 52.4622L618.67 51.6133L617.854 50.7644C617.435 51.1667 617.106 51.6426 616.861 52.1783L617.932 52.668ZM618.67 51.6133L619.487 52.4616C619.693 52.2629 619.927 52.1115 620.197 52.0036L619.76 50.9102L619.322 49.8167C618.772 50.0369 618.28 50.3543 617.853 50.765L618.67 51.6133ZM619.76 50.9102L620.224 51.9926C620.48 51.8828 620.761 51.8241 621.078 51.8241V50.6465V49.4688C620.458 49.4688 619.86 49.586 619.296 49.8277L619.76 50.9102ZM621.078 50.6465V51.8241H625.543V50.6465V49.4688H621.078V50.6465ZM625.543 50.6465V51.8241C625.866 51.8241 626.153 51.886 626.418 52.0039L626.896 50.9277L627.375 49.8516C626.796 49.5944 626.181 49.4688 625.543 49.4688V50.6465ZM626.896 50.9277L626.444 52.0148C626.723 52.1311 626.95 52.2874 627.138 52.4829L627.986 51.666L628.835 50.8491C628.414 50.4118 627.914 50.0759 627.349 49.8407L626.896 50.9277ZM627.986 51.666L627.169 52.5143C627.365 52.7026 627.521 52.9297 627.638 53.2088L628.725 52.7559L629.812 52.3029C629.576 51.7383 629.241 51.2388 628.803 50.8177L627.986 51.666ZM628.725 52.7559L627.648 53.2342C627.766 53.4993 627.828 53.7868 627.828 54.1094H629.006H630.184C630.184 53.471 630.058 52.8562 629.801 52.2776L628.725 52.7559ZM629.006 54.1094H627.828V69.3672H629.006H630.184V54.1094H629.006ZM629.006 69.3672V68.1895H625.543V69.3672V70.5448H629.006V69.3672ZM625.543 69.3672H626.721V54.1094H625.543H624.365V69.3672H625.543ZM625.543 54.1094V52.9317H617.633V54.1094V55.287H625.543V54.1094Z" fill="#EDC702"/>
<path d="M1770 22.0156L1682.24 21.7881L1594.48 21.5605" stroke="#475671" stroke-width="2"/>
<path d="M861.136 38.5532L878.867 21.5605H908.265H937.663" stroke="#475671" stroke-width="2"/>
</g>
<defs>
<linearGradient id="paint0_linear_3421_23563" x1="-334.315" y1="56.5" x2="713" y2="56.5" gradientUnits="userSpaceOnUse">
<stop stop-color="#52729F"/>
<stop offset="1" stop-color="#1D2939"/>
</linearGradient>
<linearGradient id="paint1_linear_3421_23563" x1="67.0908" y1="-1" x2="67.0908" y2="93.3701" gradientUnits="userSpaceOnUse">
<stop stop-color="white"/>
<stop offset="1" stop-color="#819DBF"/>
</linearGradient>
<clipPath id="clip0_3421_23563">
<rect width="1920" height="93" fill="white"/>
</clipPath>
</defs>
</svg>
