<svg width="151" height="176" viewBox="0 0 151 176" fill="none" xmlns="http://www.w3.org/2000/svg">
<path d="M148.466 80.2891C148.466 123.103 117.563 163.122 75.915 172.856L75.3887 172.979L74.8623 172.856C33.2146 163.122 2.3125 123.103 2.3125 80.2891V33.6025L3.71973 33.0039L74.4834 2.89844L75.3887 2.51367L76.2939 2.89844L147.059 33.0039L148.466 33.6025V80.2891Z" fill="#465973" stroke="white" stroke-width="4.62509"/>
<mask id="mask0_3408_4181" style="mask-type:alpha" maskUnits="userSpaceOnUse" x="4" y="5" width="143" height="166">
<path d="M75.3884 5.02637L4.62451 35.1315V80.2892C4.62451 122.06 34.8171 161.122 75.3884 170.605C115.96 161.122 146.152 122.06 146.152 80.2892V35.1315L75.3884 5.02637Z" fill="black"/>
</mask>
<g mask="url(#mask0_3408_4181)">
<path d="M75.3889 5.02637L4.625 35.1315V80.2892C4.625 122.06 34.8176 161.122 75.3889 170.605C115.96 161.122 146.153 122.06 146.153 80.2892V35.1315L75.3889 5.02637Z" fill="#233144"/>
<path d="M75.3891 5.02637V62.3775L75.389 170.605C34.8176 161.122 75.389 212.376 75.389 170.605C115.96 161.122 146.153 122.06 146.153 80.2892V35.1315L75.3891 5.02637Z" fill="#344660"/>
<path d="M4.625 77.4488H26.738C26.738 77.4488 54.279 52.4868 76.6837 52.6007C102.808 52.7336 130.972 87.0057 130.972 87.0057C130.972 87.0057 103.058 122.441 76.6837 122.366C53.8495 122.302 26.738 95.6069 26.738 95.6069M26.738 95.6069H4.625M26.738 95.6069C26.738 95.6069 49.1396 88.2209 60.5882 84.1153" stroke="#AC951D" stroke-width="10.0457"/>
<path d="M95.9952 89.7943C95.9952 101.033 86.8841 110.145 75.6448 110.145C64.4056 110.145 55.2944 101.033 55.2944 89.7943C55.2944 78.555 64.4056 69.4438 75.6448 69.4438C86.8841 69.4438 95.9952 78.555 95.9952 89.7943ZM62.984 89.7943C62.984 96.7866 68.6525 102.455 75.6448 102.455C82.6372 102.455 88.3057 96.7866 88.3057 89.7943C88.3057 82.8019 82.6372 77.1334 75.6448 77.1334C68.6525 77.1334 62.984 82.8019 62.984 89.7943Z" fill="#FDDB35"/>
</g>
</svg>
