<svg width="146" height="179" viewBox="0 0 146 179" fill="none" xmlns="http://www.w3.org/2000/svg">
<path d="M74.9906 15.6117C76.3967 16.2035 77.7324 16.8128 79.0917 17.4924C79.4783 17.6799 79.865 17.8732 80.2634 18.0665C81.523 18.6875 82.7768 19.3086 84.0364 19.9354C84.9093 20.3631 85.7823 20.7908 86.6552 21.2185C88.4011 22.0739 90.147 22.9292 91.887 23.7904C95.1327 25.384 98.3842 26.9483 101.648 28.5008C102.187 28.7586 102.726 29.0164 103.282 29.28C106.522 30.8267 109.779 32.3617 113.037 33.8849C117.776 36.1054 122.457 38.443 127.133 40.804C128.679 41.5773 130.226 42.3507 131.82 43.1475C131.82 53.3943 131.82 63.6411 131.82 74.1984C129.5 74.1984 127.18 74.1984 124.789 74.1984C124.789 65.3049 124.789 56.4115 124.789 47.2485C123.823 47.0552 122.856 46.8619 121.86 46.6627C120.712 46.153 119.575 45.6081 118.462 45.0398C117.8 44.7 117.138 44.3661 116.458 44.0204C116.107 43.8446 115.761 43.6689 115.398 43.4814C113.546 42.5323 111.689 41.5949 109.826 40.6575C109.457 40.4701 109.082 40.2826 108.695 40.0892C104.905 38.1735 101.079 36.3397 97.2418 34.5235C94.3008 33.135 91.3773 31.7231 88.4714 30.2643C86.8192 29.4382 85.1612 28.618 83.5032 27.7919C82.6947 27.3877 81.8804 26.9834 81.0719 26.5733C79.9412 25.9933 78.8046 25.4309 77.6621 24.8684C77.006 24.5345 76.3498 24.2064 75.6702 23.8666C72.694 22.8413 70.7021 23.5795 67.9426 24.845C67.0404 25.2903 66.1382 25.7355 65.2418 26.1866C64.7555 26.4268 64.2692 26.667 63.7654 26.9131C62.7225 27.4287 61.6797 27.9442 60.6427 28.4657C57.9243 29.819 55.2059 31.1548 52.4816 32.4964C51.9485 32.7601 51.4095 33.0237 50.8529 33.2932C45.9199 35.7187 40.94 38.0329 35.9367 40.3119C32.0231 42.0988 28.1564 43.956 24.3366 45.942C21.7939 47.2485 21.7939 47.2485 20.505 47.2485C20.505 48.2152 20.505 49.1819 20.505 50.1779C20.0949 50.3419 19.6848 50.5001 19.263 50.67C18.4662 50.9864 18.4662 50.9864 17.646 51.3144C16.8551 51.6308 16.8551 51.6308 16.0407 51.953C14.6698 52.492 14.6698 52.492 13.4746 53.1072C13.4746 49.8205 13.4746 46.5338 13.4746 43.1475C14.3358 42.7374 15.2029 42.3273 16.0934 41.9054C24.0026 38.1383 24.0026 38.1383 31.8591 34.2482C34.9818 32.6722 38.1279 31.1548 41.3033 29.6725C44.4494 28.202 47.5779 26.6963 50.6771 25.1321C56.7291 22.0739 62.8573 19.1738 68.9737 16.2503C71.3992 15.0845 72.2839 14.9907 74.9906 15.6117Z" fill="#465973"/>
<path d="M77.4698 1.62069L79.0575 2.34131C79.0575 2.34131 80.1648 2.85687 80.733 3.12051L82.4789 3.91729C86.2109 5.6456 89.9077 7.43249 93.5752 9.29554C96.3405 10.6958 99.1293 12.0257 101.936 13.338C105.158 14.8378 108.357 16.3845 111.532 17.9839C115.416 19.9466 119.336 21.8214 123.279 23.6727C126.975 25.4127 130.631 27.2289 134.275 29.0861C138.019 30.9257 141.81 32.6658 145.583 34.4292C145.583 48.3494 145.583 62.2696 145.583 76.6116L138.552 74.2681C138.359 62.668 138.166 51.0678 137.966 39.1161C130.825 35.5189 130.825 35.5189 123.613 32.0857C120.455 30.6328 117.344 29.1037 114.239 27.5453C109.388 25.1081 104.513 22.7295 99.6272 20.3684C99.2113 20.1634 98.7895 19.9583 98.3559 19.7474C93.2354 17.2692 88.115 14.7851 82.9535 12.4006C80.364 11.1996 77.8564 9.89899 75.3841 8.48119C72.0681 7.39148 68.9103 9.3014 65.9809 10.7368C65.5415 10.9477 65.108 11.1527 64.6569 11.3695C61.376 12.9514 58.1186 14.5801 54.867 16.2205C51.8322 17.7496 48.7682 19.2143 45.6924 20.6614C42.3002 22.2549 38.9315 23.8778 35.5862 25.5651C31.2273 27.7679 26.8275 29.8712 22.4159 31.9627C19.0472 33.5621 15.7019 35.2084 12.3683 36.8781C11.9406 37.0949 11.5071 37.3058 11.0618 37.5284C10.0131 38.0557 8.95855 38.5889 7.90399 39.1161C7.85126 50.0015 7.81025 60.8928 7.78096 71.7782C7.76924 76.8342 7.75752 81.8903 7.72823 86.9463C7.70479 91.3579 7.68722 95.7636 7.68722 100.175C7.68136 102.507 7.6755 104.839 7.65792 107.17C7.64034 109.373 7.63449 111.57 7.64034 113.773C7.64034 114.957 7.62863 116.14 7.61105 117.323L7.78096 129.017L73.3013 170.978L131.056 134.739L145.583 100.268C145.583 100.268 145.553 133.778 145.583 134.739L73.3013 178.847L0.0710178 132.268C0.0710178 132.268 -0.0169291 118.776 0.0240815 115.039C0.0240815 114.154 0.0240815 113.269 0.0240815 112.385C0.0182229 110.006 0.0358007 107.627 0.0533766 105.249C0.065094 102.759 0.0650933 100.263 0.0709519 97.7731C0.0768106 93.0569 0.0943877 88.3465 0.117822 83.6361C0.147116 78.2696 0.158831 72.8972 0.170548 67.5307C0.193983 56.4929 0.234992 45.4611 0.28772 34.4292C0.615805 34.2769 0.949752 34.1304 1.28955 33.9781C2.80695 33.2985 4.32434 32.6189 5.84759 31.9393C6.36316 31.7049 6.88458 31.4764 7.41772 31.2362C11.759 29.2912 16.0124 27.1996 20.2541 25.0436C26.0424 22.0909 31.8718 19.2377 37.7539 16.4724C40.6363 15.1073 43.5012 13.713 46.3544 12.2717C51.0882 9.88141 55.8747 7.59653 60.6613 5.31165C61.5518 4.88397 61.5518 4.88397 62.4599 4.45043C63.0399 4.17507 63.614 3.89971 64.2116 3.6185C65.3365 3.06778 66.4496 2.49949 67.551 1.90777C68.0607 1.63241 68.5704 1.35705 69.0977 1.07584C69.543 0.829773 70.4452 0.325928 70.4452 0.325928L77.4698 1.62069Z" fill="white"/>
<path d="M43.0054 42.7683H100.251L104.817 48.627H46.2835L43.0054 42.7683Z" fill="#EDC702"/>
<path d="M42.1751 55.2192H16.3948L13.5392 58.2349C13.5392 58.2349 13.4865 64.6194 13.4747 66.6026C13.463 68.5858 13.4894 67.0449 13.4865 68.2196C13.4835 69.3943 13.4806 72.1068 13.4865 73.6623C13.4923 75.2178 13.4923 75.5488 13.4923 77.5525C13.4923 79.5561 13.4923 82.5645 13.504 85.6784C13.5158 88.7923 13.5275 93.0984 13.5216 96.2299C13.5158 99.3613 13.5158 102.44 13.5216 104.467C13.5275 106.494 13.5333 106.805 13.5333 108.404C13.5333 110.004 13.5333 112.816 13.5392 114.052C13.5451 115.288 13.5509 113.443 13.5451 115.786L13.3003 126.521C13.3003 126.521 30.8571 139.039 34.9142 141.435C38.9714 143.832 46.3793 146.966 50.7293 149.468C55.0794 151.969 58.8298 153.839 60.7455 154.988C62.6613 156.136 61.4482 156.015 62.327 156.545C63.2058 157.075 63.6973 157.582 65.4901 158.677C67.2828 159.773 70.3454 161.37 72.8704 161.841C75.3954 162.312 75.849 162.348 78.2657 160.781C80.6824 159.213 80.6238 159.278 81.6637 158.677C82.7037 158.077 82.7271 158.074 83.5034 157.629C84.2796 157.183 83.0464 157.892 85.3957 156.545C87.745 155.197 93.2698 152.075 97.57 149.468C101.87 146.86 106.853 143.987 111.473 141.435C116.092 138.884 125.715 132.747 125.715 132.747H126.18L145.141 88.9992L139.565 79.8022C139.565 79.8022 137.731 79.7582 135.962 79.767C134.193 79.7758 135.552 79.7905 134.585 79.8022C133.618 79.8139 131.398 79.8315 130.144 79.8549C128.89 79.8783 128.762 79.8842 127.057 79.9018C125.352 79.9194 121.605 79.9633 119.927 79.9955L117.993 80.0307C117.993 80.0307 118.002 79.3569 118.005 78.9292C118.005 78.9292 117.996 79.2515 118.011 77.4822V67.2553H48.0305L42.1751 55.2192Z" fill="#EDC702"/>
<path d="M118.13 129.684C118.13 129.684 115.253 137.767 114.832 139.489L102.839 146.369C100.098 147.804 97.461 149.404 94.8071 150.997L91.6079 152.878C89.2059 154.302 86.8215 155.749 84.437 157.202C83.3692 157.845 82.2972 158.488 81.228 159.134V159.199C80.6834 159.533 80.1624 159.856 79.6353 160.178C79.1257 160.482 78.6331 160.781 78.1411 161.08L77.3784 161.544C76.9918 161.775 76.7487 161.904 76.3608 162.092C76.1344 162.23 75.9072 162.37 75.6782 162.51C74.6706 162.894 73.8907 163.017 73.0952 162.973C72.3 163.017 71.5204 162.894 70.5132 162.51C70.2841 162.37 70.0562 162.23 69.8296 162.092C69.4422 161.904 69.1993 161.775 68.813 161.544L68.0503 161.08C67.5583 160.781 67.0657 160.482 66.5562 160.178C66.029 159.856 65.5072 159.533 64.9624 159.199V159.134C63.8935 158.488 62.822 157.845 61.7544 157.202C59.37 155.749 56.9855 154.302 54.5835 152.878L51.3843 150.997C48.7304 149.404 46.0938 147.804 43.3521 146.369L31.3599 139.489C30.9383 137.768 28.0651 129.695 28.061 129.684C32.1503 132.156 46.5094 139.748 50.6519 142.133C53.921 144.008 57.1962 145.877 60.4243 147.816C61.0489 148.196 61.6561 148.564 62.2632 148.932L62.27 148.936C63.4298 149.633 64.5839 150.329 65.7378 151.032C66.2885 151.372 66.816 151.7 67.3491 152.028C67.8588 152.333 68.3511 152.632 68.8433 152.931C70.1087 153.751 70.1091 153.751 71.4155 154.29C71.8529 154.333 72.2642 154.39 72.6567 154.448C73.3366 154.426 74.0395 154.362 74.7759 154.29C76.0824 153.751 76.0827 153.751 77.3481 152.931C77.8402 152.632 78.3326 152.333 78.8423 152.028C79.3753 151.7 79.9021 151.372 80.4526 151.032C81.6067 150.329 82.7614 149.633 83.9214 148.936L83.9263 148.933C84.534 148.564 85.1418 148.196 85.7671 147.816C88.9952 145.877 92.2704 144.008 95.5396 142.133C99.6822 139.748 114.041 132.156 118.13 129.684Z" fill="#7E6A09"/>
<path d="M93.8001 92.8269H71.5562L52.5244 132.146H86.2877L99.0113 107.42M93.8001 92.8269L99.0113 107.42M93.8001 92.8269L86.2873 107.42H99.0113" stroke="#7E6A09" stroke-width="5.27169"/>
<path d="M48.7485 55.0715H107.141L110.728 60.9302H52.7275L48.7485 55.0715Z" fill="#7E6A09"/>
<path d="M40.3243 62.843H19.9189L19.919 67.8639C19.9248 68.3384 19.9248 68.8012 19.9307 69.2641C19.9307 70.8108 19.9307 72.3575 19.9424 73.9041C19.9483 75.0114 19.9483 76.1187 19.9541 77.226C19.9541 80.126 19.96 83.0261 19.9776 85.9203C19.9893 88.9258 19.9952 91.9313 20.001 94.9367C20.0127 101.411 20.0362 107.884 20.0655 114.358L38.4642 81.1455H110.289V73.9041L46.4294 74.5193L40.3243 62.843Z" fill="#7E6A09"/>
</svg>
