<svg width="159" height="169" viewBox="0 0 159 169" fill="none" xmlns="http://www.w3.org/2000/svg">
<path d="M24.2133 71.7754L11.9141 87.9791L19.5892 110.298L32.5105 102.523C29.2307 98.7751 25.6125 80.4629 24.2133 71.7754Z" fill="#465973"/>
<path d="M22.6545 58.961L1.45703 90.6682L7.51339 65.9081C7.51339 65.9081 4.7425 49.3153 6.4446 27.7882L55.7867 3.5625L39.755 30.6383L21.5857 38.8323L22.6545 58.961Z" fill="#EDC702" stroke="white" stroke-width="3"/>
<path d="M105.016 13.1374L79.2192 5.06494V30.5108L105.016 13.1374Z" fill="#7E6A09"/>
<path d="M59.5642 11.207L26.748 64.5556L79.219 30.5108V5.06494L59.5642 11.207Z" fill="#EDC702"/>
<path d="M34.9339 108.311L22.0591 115.445C25.633 124.036 40.9191 141.32 48.1154 148.888L61.2924 140.063C52.9412 133.365 41.9802 121.969 34.9339 108.311Z" fill="#233144"/>
<path d="M46.1885 158.395L78.5307 168.08V136.498L46.1885 158.395Z" fill="#EDC702"/>
<path d="M93.0588 160.471L118.483 109.449L78.5308 136.498V168.08L93.0588 160.471Z" fill="#7E6A09"/>
<path d="M127.604 105.45L101.863 165.925L153.908 95.7827L127.604 105.45Z" fill="#EDC702" stroke="white" stroke-width="3"/>
<path d="M147.814 90.493L127.467 99.5709C129.721 91.9329 132.26 82.8647 134.197 72.6502L158.457 52.3032L147.814 90.493Z" fill="#435670"/>
<path d="M136.509 39.3359L95.7363 27.2144L112.767 15.7942L152.036 27.9156L136.509 39.3359Z" fill="#465973"/>
<path d="M135.407 62.9776C135.487 60.1726 136.175 46.0476 136.509 39.3357L152.036 27.9155V49.4537L135.407 62.9776Z" fill="#344660"/>
<path d="M51.3604 63.6024V98.3104L60.1506 74.6582L62.3255 73.4802H100.115V68.3147L98.7553 66.9554H75.0125L70.2096 61.8806H52.4478L51.3604 63.6024Z" fill="#EDC702"/>
<path d="M62.0956 76.6548L51.5093 104.671H99.1496L100.252 103.647L110.453 76.8296L108.825 75.4785H63.0581L62.0956 76.6548Z" fill="#7E6A09"/>
</svg>
